<?xml version="1.0" encoding="UTF-8" standalone="no"?>
<!-- Created with Inkscape (http://www.inkscape.org/) -->

<svg
   xmlns:dc="http://purl.org/dc/elements/1.1/"
   xmlns:cc="http://creativecommons.org/ns#"
   xmlns:rdf="http://www.w3.org/1999/02/22-rdf-syntax-ns#"
   xmlns:svg="http://www.w3.org/2000/svg"
   xmlns="http://www.w3.org/2000/svg"
   xmlns:sodipodi="http://sodipodi.sourceforge.net/DTD/sodipodi-0.dtd"
   xmlns:inkscape="http://www.inkscape.org/namespaces/inkscape"
   width="54.780815"
   height="89.464386"
   id="svg3441"
   version="1.1"
   inkscape:version="0.48.2 r9819"
   sodipodi:docname="New document 3">
  <defs
     id="defs3443" />
  <sodipodi:namedview
     id="base"
     pagecolor="#ffffff"
     bordercolor="#666666"
     borderopacity="1.0"
     inkscape:pageopacity="0.0"
     inkscape:pageshadow="2"
     inkscape:zoom="11.255876"
     inkscape:cx="27.390408"
     inkscape:cy="44.732193"
     inkscape:document-units="px"
     inkscape:current-layer="layer1"
     showgrid="false"
     fit-margin-top="0"
     fit-margin-left="0"
     fit-margin-right="0"
     fit-margin-bottom="0"
     inkscape:window-width="1914"
     inkscape:window-height="1181"
     inkscape:window-x="1366"
     inkscape:window-y="0"
     inkscape:window-maximized="0" />
  <metadata
     id="metadata3446">
    <rdf:RDF>
      <cc:Work
         rdf:about="">
        <dc:format>image/svg+xml</dc:format>
        <dc:type
           rdf:resource="http://purl.org/dc/dcmitype/StillImage" />
        <dc:title></dc:title>
      </cc:Work>
    </rdf:RDF>
  </metadata>
  <g
     inkscape:label="Layer 1"
     inkscape:groupmode="layer"
     id="layer1"
     transform="translate(-347.60959,-487.62999)">
    <g
       transform="matrix(1.25,0,0,-1.25,346.44016,577.40199)"
       id="g3310">
      <path
         d="m 11.3926,31.1023 c 0.6117,0.6965 -0.4324,0.9485 -0.8633,0.8657 0.1793,0.5144 0.8633,0.948 1.3801,0.6961 0.348,0.1671 0.6961,0.2519 0.8648,-0.2645 0.1801,-0.5168 0.6965,-0.6008 1.2117,-0.6965 0.8653,0.0957 1.3801,0.7793 1.2118,1.5606 0,0.2636 0.1683,0.864 0.5168,1.0324 0,0.0965 -0.9477,0.0965 -1.2118,0.8641 -0.5168,-0.2508 -1.5484,-0.2508 -1.8972,0 0.1687,0.0964 0.8652,0.3488 0.6968,0.696 -0.264,0.0852 -0.4328,0.0852 -0.6968,-0.0828 0.0832,0.3477 0.6,0.6836 0.5172,0.7793 0,0.1692 -0.434,0.0852 -0.684,0 0.25,0.1692 0.4308,0.4328 0.4308,0.6848 -0.1808,0.4336 -0.5277,0.4336 -0.8652,0.3484 0,0.2637 0.6012,0.6961 0.4344,0.8645 -0.0969,0.1687 -0.2653,0.084 -0.5293,0.084 0.0949,0 0.0949,0.0847 0.1797,0.0847 0.0843,0.1797 0.2527,0.2625 0.2527,0.5274 0.0969,0.168 -0.2527,0.168 -0.5152,0.084 0.3468,0.6007 0.6949,0.6836 1.2961,1.0332 0.0828,0.084 0,0.3476 -0.1684,0.3476 -0.3488,0 -0.6125,0.1692 -0.6969,0.4336 0,0.084 -0.084,0.2637 -0.084,0.3477 0.1684,-0.084 0.3481,-0.084 0.5153,0 0.1808,0.1676 0.1808,0.2519 0,0.432 -0.1672,0 -0.4313,-0.0844 -0.5153,0 -0.264,0 -0.0843,0.3484 -0.3468,0.3484 -0.6008,0.0832 -0.6008,0.8641 -0.434,1.2965 0,0 0.6117,-0.8648 0.7808,-0.2644 -0.0843,0.5168 -0.4312,0.7797 -0.8652,0.8648 0.5184,0.5996 1.2133,0.2641 1.5613,0 0.0848,-0.0851 0.2532,0 0.336,0 0,0.0832 0.1793,0.1676 0.0968,0.3481 -0.0968,0.348 -0.348,0.348 -0.6136,0.4316 0.5168,0.4324 1.3816,0.2524 1.6472,-0.4316 0.2621,-0.1805 0.6961,-0.084 0.6961,-0.5164 -0.0965,-0.3485 -0.3496,0 -0.3496,-1.825 0,-0.9477 0.6836,-2.0649 0.8649,-1.9809 0.0843,0.168 0.1672,0.4316 0.2515,0.6848 -0.0843,0.0957 -0.1672,0 -0.1672,0.0957 0.0829,0.5164 0.3485,0.9484 0.6012,1.38 -0.1703,0 -0.2527,0 -0.434,0 0.0953,0.3485 0.434,0.6008 0.6961,0.9489 0,0.0836 -0.4324,0.1683 -0.5148,0.2644 0.0824,0.1672 0.5996,0.6004 0.5996,0.6836 -0.0848,0.1809 -0.25,0.1809 -0.3469,0.3489 0.0969,0.1675 0.6117,0.264 0.7793,0.6968 0,0.0832 -0.2516,0.2524 -0.2516,0.2524 0,0 0.334,0 0.5153,0 0.6012,0.0836 0.9492,-0.0844 0.9492,-0.0844 0.0832,0.0844 -0.084,0.348 -0.084,0.516 0.432,-0.0836 0.6844,0 0.7805,0.4317 0.0828,0 0.1676,-0.1668 0.2519,-0.1668 0.6118,-0.1813 1.0457,-0.4329 1.3817,-0.8657 0.4308,0.3485 1.0429,0.3485 1.5597,0.2528 0.2637,0.0957 0.2637,0.0957 0.4325,0.0957 -0.4325,-0.4317 0.5152,-0.5285 0.9476,-0.3485 0.4328,-0.516 0.4328,-0.948 -0.0844,-1.4769 0.2657,-0.1684 0.6016,-0.684 0.6965,-0.6 0.6856,0.7797 1.8973,1.0324 1.7321,1.5609 -0.0969,0.516 -0.5309,0.516 -0.9621,0.516 0.0964,0.2528 0.6117,0.3485 1.1273,0.3485 0.0848,0.2523 0,0.3359 0,0.6004 0.9492,-0.168 1.382,-1.2121 1.8973,-1.3813 0.6121,0 1.2132,0.2524 1.6457,0.6852 l 0,0 c 0,-1.1168 1.0445,-0.2528 1.4769,-0.4328 0.0828,-0.8645 -1.6441,-1.2004 -1.825,-1.6325 -0.0844,-0.4324 0.1809,-0.5293 0.2637,-0.6961 -0.0828,0 -0.6961,-0.0843 -0.6012,-0.2644 0.2531,-0.5164 1.0336,-0.2528 1.1184,0 0.2637,0.5281 -0.0848,0.6961 -0.1692,0.7797 0.1692,0.0847 0.3485,-0.1676 0.5172,0.0847 0.084,0.1797 0,0.2633 -0.0843,0.3485 0.348,-0.1688 0.6855,-0.3485 1.2972,-0.2524 0.1656,0.0836 0.0844,0.3356 0.0844,0.4321 0.348,-0.0965 0.598,-0.3485 0.9465,-0.5282 0.2664,0.0961 0.2664,0.3485 0.0859,0.8641 0.3465,0 0.6961,-0.9488 1.1289,-1.1164 0.1668,0 0.3481,0.2523 0.4305,0.432 0,0 0,-0.0836 0.0848,-0.1797 0.4324,-2.1613 1.2132,-0.1683 1.6453,-0.4332 L 35.8633,42.857 C 35.6836,42.6047 35.5977,42.3406 35.5977,42.0766 36.0316,40.7805 34.65,40.4434 34.65,40.4434 34.7344,37.502 31.7926,37.418 30.1594,37.7539 c 0.4324,-1.032 1.6332,-1.116 1.7285,-1.9805 0.0855,-0.2644 0.1687,-1.1289 0.434,-1.2976 0.4308,-0.3481 1.1992,0.0847 1.5472,0.3484 0.6961,0 0.6961,-0.4316 0.7809,-0.5281 0.7809,-0.084 1.2133,0.2644 1.8129,0.5281 0.1809,-0.1797 -0.3481,-0.7804 -0.1691,-0.7804 0.1691,0 0.1691,0.0839 0.255,0.0839 0.095,-0.3484 -0.1687,-0.6961 -0.0859,-0.864 0.0859,-0.0848 0.2652,-0.0848 0.3469,-0.168 C 36.7281,32.916 36.4629,33 36.2938,32.6641 c 0.1691,-0.1817 0.516,-0.1817 0.6843,-0.0965 -0.1683,-0.3364 -0.7679,-0.7688 -0.8633,-0.8645 0.0954,-0.084 0.3481,-0.1679 0.434,-0.084 -0.0859,-0.2519 -0.5172,-0.3476 -0.6015,-0.5168 0.0843,-0.0835 0.1675,-0.1675 0.2629,-0.2644 -0.2629,-0.1668 -0.8625,-0.4317 -0.7793,-0.5164 0.1668,-0.1684 0.348,-0.2524 0.5164,-0.2524 -0.5164,-0.5269 -0.8649,-0.5269 -1.4645,-0.5269 0,-0.2531 0,-0.5176 -0.2656,-0.6008 -0.0824,-0.1687 -0.4305,-0.3484 -0.6012,-0.3484 0.1707,0.5156 -0.0949,1.0449 -0.5277,1.0449 -0.084,-0.0957 -0.084,-0.1809 -0.084,-0.1809 0.1809,-0.5156 -0.0844,-1.2121 -0.8621,-1.032 -0.3496,-0.4328 -1.2977,-0.4328 -1.8141,0.168 0,0 -0.0843,0 -0.0843,0.084 0.4324,0 0.6855,0.0957 1.032,0.2644 0,0.0832 0,0.2637 -0.0844,0.3477 -0.4312,0.0839 -0.9476,-0.1805 -1.3805,-0.4317 l 0,0.084 c -0.0828,0.6008 0.3485,1.3801 0.8653,1.3801 0.1683,0.4324 0.2531,0.3496 0.348,0.4324 -0.264,0.2649 -0.7804,0.4324 -1.1289,0.3484 -0.0844,0 -0.1672,-0.0835 -0.2637,0 0.5278,0.7805 1.1286,0.9485 1.6442,0.6965 0.1808,0.084 0.4308,0.252 0.6121,0.1692 0.3355,0 0.3355,-0.5176 0.6008,-0.6965 0.3496,-0.0852 0.7808,0.3476 0.7808,0.7793 0.0844,0.6965 -1.1273,0.7804 -1.8129,0.6965 -0.5273,-0.0832 -1.0445,0 -1.4765,0.3484 -0.4328,0.252 -0.7809,0.6008 -1.2133,0.9481 L 28.682,33.9602 c 0,-0.3489 -0.2511,-0.6965 0,-1.0442 0.3485,-0.2519 0.7809,-0.4336 0.8653,-0.7812 0,-0.1668 -0.0844,-0.4317 -0.2535,-0.5996 -0.179,-0.168 -0.6118,-0.3489 -0.6961,-0.6973 0,-0.4317 0.0843,-0.5996 0.4328,-0.9484 -0.3485,-0.1688 -0.7789,0.0839 -1.1289,0.0839 -0.084,-0.0839 -0.334,-0.5164 -0.4325,-0.6843 -0.2519,-0.084 -0.3343,0.6004 -0.5156,0.5156 -0.0844,-0.084 -0.3496,-0.4317 -0.2527,-0.5996 -0.1797,0 -0.3469,0.5996 -0.4313,0.6844 -0.2652,-0.0848 -0.348,-0.4325 -0.4304,-0.6844 -0.1813,0.084 -0.2661,0.2519 -0.3504,0.4328 l -0.0856,0.0828 C 25.225,29.373 24.877,29.2891 24.541,29.2891 c -0.1805,0.0839 0.0844,0.4316 0.0844,0.4316 -0.0844,0.084 -0.0844,0.084 -0.1813,0 -0.1668,-0.2637 -1.0336,-0.2637 -1.116,0 0.2516,0.1688 0.5164,0.3484 0.4309,0.6855 -0.0828,0.1797 -0.1793,0.1797 -0.2641,0.0958 -0.3465,-0.1805 -0.5148,-0.6125 -0.8617,-0.8641 -0.3496,-0.1809 -0.6012,-0.0957 -0.8664,0.1668 -0.4313,0.0848 -0.8648,0 -1.2977,-0.3477 l -0.0828,0.0852 c 0.1688,0.7793 0.4325,1.0437 0.9492,1.2117 0,0.1809 0,0.3484 -0.1683,0.5176 -0.2652,0.2637 -0.6121,0.1789 -0.9481,-0.0852 -0.0964,0.2641 0.4309,1.2961 1.1164,0.9485 0.0829,0 0.1797,0.0964 0.1797,0.1804 -0.1797,0.516 -0.5293,0.516 -0.8652,0.4321 0,0.5164 0.7684,1.032 1.2977,0.6843 0.0843,0.0957 0.25,0.1797 0.4308,0.1797 0.336,0.0852 0.4324,-0.3476 0.684,-0.5156 0.1813,-0.0957 0.5172,-0.1797 0.782,-0.4316 0.3469,-0.4329 0.516,-0.4329 1.0325,-0.5293 0.348,-0.084 0.7808,0 1.0445,0.0964 0.5996,0.1684 0.5996,0.9477 0.0828,1.0325 -0.5156,0 -1.1273,-0.0848 -1.6438,0 -0.8656,0.1679 -1.0324,0.4328 -1.0324,1.4648 -0.6949,-0.3359 -2.4261,-0.864 -2.6781,-0.9492 -0.1809,-0.252 -0.5273,-0.3477 -0.8648,-0.3477 -0.0954,-0.1679 0.3375,-0.6843 0.3375,-0.6843 -0.0844,-0.1797 -1.2973,-0.7793 -1.2012,-0.7793 0.0828,-0.1692 0.1676,-0.1692 0.2519,-0.2649 -0.0843,-0.084 -0.5172,-0.084 -0.6004,-0.1679 0,-0.0848 0.1692,-0.168 0.2524,-0.168 -0.2524,-0.2649 -0.6004,-0.1809 -0.8652,-0.3484 -0.2516,-0.084 -0.5153,-0.1809 -0.7688,-0.3477 -0.1793,-0.0852 0.0844,-0.2649 0,-0.3496 -1.2973,-0.3481 -1.6441,0.3496 -1.9937,0.2644 -0.1657,-0.0839 -0.3465,-0.2644 -0.5153,-0.4328 0.0844,-0.6109 -0.3465,-1.2957 -0.8636,-1.3804 -0.1793,0.0847 0.1671,0.3359 0,0.6843 -0.0844,0.0852 -0.0844,0.0852 -0.2653,0.0852 -0.2512,0 -0.1687,-0.7695 -0.684,-0.6848 -0.1808,0 -0.264,0.1672 -0.348,0.084 -0.6949,-0.3484 -1.0445,-0.5164 -1.8129,0 l 0,0.0832 c 1.2957,0.3484 1.4648,1.5613 -0.2637,1.1285 l -0.0844,-0.084 c 0.1688,0.7688 0.5165,0.9497 1.0321,1.0332 l 0,0 z m 12.4519,9.7739 0.0832,0.0828 c 0.4328,-0.8633 1.561,-0.9473 2.4262,-0.8633 1.7285,0.252 4.0582,1.2969 5.534,1.2969 0.5148,0 1.8129,-0.3477 1.8129,-1.1289 0,-0.5164 -0.1797,-0.8641 -0.6125,-1.1172 -0.5164,-0.3477 -1.8125,-0.5274 -2.3281,-0.5274 -0.4321,0 -1.7297,0.095 -1.9934,0.6114 -0.3359,0.1691 -0.6012,0.2519 -1.0309,0.2519 -1.2148,0 -2.5953,-0.6836 -3.6289,-0.6836 -0.2625,0 -0.348,1.5489 -0.2625,2.0774 l 0,0 z m 2.6766,2.1609 c 0.5184,-0.348 0.948,-0.9605 1.5613,-1.2969 0,-0.0957 -1.3816,-0.6113 -1.8129,-0.6113 -1.0445,0 -1.2961,0.5156 -1.2961,0.9477 0,0.6125 0.9481,1.2968 1.5477,0.9605 l 0,0 z m -24.45665,2.6777 11.75435,0 0,8.4649 18.1546,0 0,-8.4649 11.6704,0 0,-18.1543 -11.6704,0 0,-12.3671 -9.1625,-3.1922 -8.9921,3.1922 0,12.3671 -11.75435,0 0,18.1543"
         style="fill:#f03c1f;fill-opacity:1;fill-rule:evenodd;stroke:none"
         id="path110"
         inkscape:connector-curvature="0" />
      <path
         d="m 2.06445,70.7008 41.57935,0 0,-15.7406 -41.57935,0 0,15.7406"
         style="fill:#d9f3fd;fill-opacity:1;fill-rule:evenodd;stroke:none"
         id="path112"
         inkscape:connector-curvature="0" />
      <path
         d="m 0.935547,71.8176 0,-50.5715 c 0,-2.4141 1.644143,-3.0273 3.024613,-3.543 l 18.85074,-6.8308 19.0203,6.8308 c 1.3782,0.5157 2.929,1.211 2.929,3.543 l 0,50.5715 -43.824653,0 0,0 z m 1.128903,-45.0383 10.97385,0 0,-11.3211 -9.07814,3.3738 c -0.94805,0.336 -1.89571,1.116 -1.89571,2.4141 l 0,5.5332 z m 41.57935,0 -10.986,0 0,-11.3211 9.1734,3.3738 c 0.8629,0.336 1.8126,1.116 1.8126,2.4141 l 0,5.5332 z m -10.986,27.4004 10.986,0 0,-7.7797 -10.986,0 0,7.7797 z m -30.59335,0 10.97385,0 0,-7.7797 -10.97385,0 0,7.7797 z M 11.3082,31.1023 c 0.6012,0.6008 -0.4312,0.9485 -0.7789,0.8657 0.1793,0.5144 0.8633,0.948 1.3801,0.6961 0.348,0.2519 0.6961,0.2519 0.8648,-0.2645 0.1801,-0.5168 0.6965,-0.6008 1.2117,-0.6008 0.8653,0 1.2977,0.6836 1.2118,1.4649 -0.0817,0.2636 0.1683,0.7801 0.4339,1.0324 0,0.0965 -0.9492,0.0965 -1.1289,0.8641 -0.5168,-0.2508 -1.6332,-0.336 -1.8972,0.0964 0.0832,0 0.8652,0.2524 0.6968,0.5996 -0.264,0.0852 -0.4328,0 -0.6968,-0.0828 0,0.3477 0.6,0.6836 0.5172,0.7793 -0.0844,0.1692 -0.434,0 -0.7809,0 0.2637,0.1692 0.4324,0.4328 0.4324,0.6848 -0.0855,0.4336 -0.5168,0.3484 -0.8648,0.2645 -0.0828,0.3476 0.6961,0.78 0.5293,0.9484 -0.0969,0.1687 -0.3496,0 -0.5293,0.084 0,0.0847 0.0949,0.0847 0.0949,0.0847 0.1691,0.1797 0.3375,0.2625 0.3375,0.5274 0,0.168 -0.2527,0.168 -0.5152,0.084 0.2625,0.6007 0.6949,0.6836 1.2117,1.0332 0.0844,0.084 0.0844,0.3476 -0.084,0.3476 -0.3488,0 -0.6125,0.1692 -0.7809,0.4336 0,0.084 0,0.2637 0,0.3477 0.1684,0 0.3481,-0.084 0.5153,0 0.1808,0.1676 0.1808,0.2519 0,0.3476 -0.1672,0 -0.4313,-0.0957 -0.5996,0 -0.2625,0.0844 -0.0848,0.4328 -0.3469,0.3364 -0.6012,0.1796 -0.6012,1.0445 -0.3496,1.3929 0,0 0.6117,-0.7804 0.7808,-0.2644 -0.0843,0.5168 -0.5172,0.7797 -0.9476,0.8648 0.5164,0.5996 1.2957,0.2641 1.6437,0 0.0848,-0.0851 0.1688,0 0.336,0 0,0.1676 0.1793,0.1676 0.0968,0.3481 -0.1796,0.348 -0.348,0.348 -0.6136,0.4316 0.434,0.4324 1.3816,0.2524 1.7297,-0.3476 0.1796,-0.2645 0.6136,-0.168 0.6136,-0.6004 0,-0.3485 -0.3496,0 -0.3496,-1.825 0,-0.8645 0.6836,-2.0649 0.8649,-1.8969 0.0843,0.168 0.1672,0.3476 0.1672,0.6008 0,0 -0.0829,0 -0.1672,0.0957 0.1672,0.5164 0.3468,0.9484 0.6011,1.2968 -0.1683,0.0832 -0.2543,0 -0.3496,0 0,0.4317 0.434,0.684 0.6121,1.0321 0.084,0.0836 -0.3484,0.1683 -0.5168,0.2644 0.086,0.0836 0.6856,0.6004 0.6008,0.6836 -0.084,0.1809 -0.1652,0.1809 -0.3465,0.3489 0.1813,0.1675 0.6961,0.264 0.7809,0.6968 0,0.0832 -0.2652,0.2524 -0.2652,0.336 0.0964,0 0.348,-0.0836 0.6117,-0.0836 0.5152,0.1793 0.9492,0 0.9492,0 0,0.0836 -0.084,0.2636 -0.084,0.4316 0.432,-0.0836 0.6844,0 0.7805,0.4317 0.0828,0 0.1676,-0.0836 0.2519,-0.1668 0.5164,-0.0848 1.0457,-0.4329 1.3817,-0.8657 0.4308,0.3485 1.0429,0.3485 1.5597,0.3485 0.2637,0.0843 0.3481,0 0.4325,0 -0.4325,-0.4317 0.5152,-0.5285 0.9476,-0.2637 0.5172,-0.6008 0.4328,-1.0328 0,-1.5617 0.2641,-0.1684 0.5172,-0.684 0.6121,-0.6 0.6856,0.7797 1.8973,1.0324 1.7321,1.5609 -0.1813,0.516 -0.5309,0.516 -1.0465,0.516 0.0844,0.3485 0.6105,0.3485 1.2117,0.3485 0,0.2523 0,0.4324 0,0.6004 0.9492,-0.168 1.382,-1.1289 1.8973,-1.2969 0.6121,-0.0844 1.2132,0.2648 1.6457,0.6008 0,0 0,0 0.0843,0 -0.0843,-1.0328 1.0446,-0.2528 1.3926,-0.336 0.0828,-0.9613 -1.6441,-1.2972 -1.7304,-1.7293 -0.179,-0.4324 0.0863,-0.5293 0.1691,-0.6961 -0.0828,-0.0843 -0.6961,-0.0843 -0.6012,-0.2644 0.2531,-0.5164 1.0336,-0.2528 1.1184,0 0.2637,0.5281 -0.252,0.6961 -0.1692,0.8644 0.0844,0 0.3485,-0.1683 0.5172,0 0,0.1797 -0.0843,0.2633 -0.0843,0.3485 0.348,-0.0852 0.6855,-0.3485 1.2972,-0.2524 0.1656,0.1672 0,0.3356 0.0844,0.5153 0.348,-0.0832 0.598,-0.4317 0.9465,-0.5153 0.2664,0 0.1808,0.3356 0.0859,0.768 0.3465,0.0965 0.6961,-0.9488 1.1289,-1.1164 0.1668,0 0.3481,0.2523 0.3481,0.432 0.0824,0 0.0824,-0.0836 0.1672,-0.0836 0.5148,-2.2574 1.2132,-0.1808 1.6453,-0.5293 l -0.084,-0.0832 c -0.1797,-0.2523 -0.1797,-0.5164 -0.1797,-0.7804 0.348,-1.2961 -1.0336,-1.6332 -0.9492,-1.7289 0.0824,-2.9297 -2.9418,-2.9297 -4.4906,-2.5938 0.348,-1.032 1.6441,-1.116 1.6441,-1.9805 0.0855,-0.2644 0.1687,-1.0449 0.5148,-1.2976 0.35,-0.2637 1.1184,0.1687 1.4664,0.4336 0.6961,0 0.7809,-0.5168 0.8653,-0.6133 0.6965,-0.084 1.1289,0.3484 1.7285,0.5281 0.2652,-0.1797 -0.3481,-0.7804 -0.0828,-0.6965 0.0828,0 0.1687,0.0844 0.2637,0 0.0843,-0.3484 -0.2637,-0.6961 -0.1809,-0.864 0.0859,-0.0848 0.2652,-0.0848 0.3469,-0.168 0,-0.1797 -0.261,-0.0957 -0.4297,-0.4316 0.1687,-0.1817 0.5152,-0.0965 0.6961,-0.0965 -0.1809,-0.3364 -0.7824,-0.7688 -0.866,-0.8645 0,-0.084 0.3386,-0.084 0.3386,-0.084 0,-0.2519 -0.434,-0.3476 -0.5172,-0.5168 0,-0.0835 0.1786,-0.1675 0.1786,-0.2644 -0.1786,-0.1668 -0.8625,-0.4317 -0.695,-0.5164 0.0825,-0.1684 0.3481,-0.2524 0.5164,-0.2524 -0.6007,-0.5269 -0.9492,-0.6121 -1.4664,-0.6121 -0.0824,-0.1679 -0.0824,-0.4324 -0.348,-0.5996 -0.0824,-0.0847 -0.4305,-0.3484 -0.6012,-0.2644 0.0848,0.4316 -0.0949,1.0449 -0.5277,0.9492 -0.084,0 -0.084,-0.0852 -0.084,-0.1692 0.2652,-0.5156 -0.0844,-1.1281 -0.8621,-1.0324 -0.3496,-0.3484 -1.382,-0.3484 -1.8984,0.1684 0,0.084 0,0.084 0,0.168 0.348,0 0.6855,0.0957 1.032,0.2644 0,0.0832 0,0.2637 -0.0844,0.3477 -0.5152,0 -0.9476,-0.1805 -1.3805,-0.4317 -0.0828,0 0,0 -0.0828,0.084 0,0.6008 0.4313,1.2969 0.8637,1.3801 0.2527,0.4324 0.3375,0.3496 0.3375,0.4324 -0.2531,0.2649 -0.6855,0.3484 -1.034,0.2649 -0.0844,0 -0.2637,-0.084 -0.2637,0.0835 0.4325,0.8657 1.0446,0.9485 1.6442,0.6965 0.1808,0.1692 0.4308,0.336 0.6121,0.252 0.3355,-0.0828 0.3355,-0.6004 0.6008,-0.7793 0.3496,-0.0852 0.7808,0.4316 0.7808,0.7793 0,0.6965 -1.2129,0.7804 -1.8129,0.6965 -0.5273,-0.0832 -1.1285,0 -1.5613,0.3484 -0.348,0.252 -0.6961,0.5156 -1.1285,0.8645 0,0.0836 0,0 -0.0848,-0.0957 0,-0.2532 -0.2511,-0.6008 0.0848,-0.9485 0.2637,-0.2519 0.6961,-0.4336 0.7805,-0.7812 0,-0.252 -0.0844,-0.4317 -0.2535,-0.5996 -0.179,-0.2637 -0.6118,-0.3489 -0.6118,-0.6973 0,-0.4317 0.0848,-0.5996 0.4328,-1.0332 -0.348,-0.084 -0.8632,0.0848 -1.2132,0.1687 -0.084,-0.0839 -0.334,-0.5164 -0.4325,-0.7683 -0.2519,-0.0965 -0.4296,0.6844 -0.5156,0.5156 -0.0844,0 -0.2527,-0.4316 -0.2527,-0.5156 -0.1797,-0.1805 -0.4313,0.5156 -0.4313,0.6844 -0.2652,-0.1688 -0.348,-0.5165 -0.348,-0.7809 -0.2637,0.0965 -0.3485,0.3484 -0.5184,0.5293 -0.1781,-0.3488 -0.5261,-0.4328 -0.959,-0.3488 -0.0836,0 0.1813,0.3488 0.0969,0.4316 0,0.084 0,0 -0.0969,0 -0.1668,-0.2637 -1.2003,-0.2637 -1.2003,0 0.2511,0.1688 0.5152,0.3484 0.4324,0.6855 0,0.1797 -0.0965,0.0958 -0.1813,0.0958 -0.3465,-0.1805 -0.5148,-0.6125 -0.8617,-0.8641 -0.2547,-0.1809 -0.6012,-0.0957 -0.8664,0.1668 -0.4313,0 -0.8648,0 -1.2977,-0.3477 0,0 -0.0828,0 -0.0828,0.0852 0.1688,0.864 0.4325,1.0437 0.9492,1.2117 0,0.1809 0,0.3484 -0.1683,0.4324 -0.3484,0.2641 -0.6981,0.1809 -0.9481,0 -0.2656,0.2641 0.336,1.3813 1.1164,0.9485 0.0829,0 0.0829,0.1804 0.1797,0.1804 -0.1797,0.516 -0.6132,0.516 -0.8652,0.3489 -0.0949,0.5996 0.7684,1.2004 1.2977,0.8632 0.0843,0.084 0.25,0.084 0.4308,0.1692 0.336,0 0.4324,-0.4328 0.684,-0.6008 0.1813,-0.0957 0.6137,-0.1797 0.8652,-0.4316 0.2637,-0.4329 0.4328,-0.4329 0.9493,-0.5293 0.348,0 0.696,0 1.0445,0.0964 0.5996,0.1684 0.5996,0.9477 0.0828,0.9477 -0.6012,0.0848 -1.1273,-0.0832 -1.6438,0 -0.8656,0.2527 -1.0324,0.5176 -1.0324,1.4656 -0.6949,-0.2519 -2.4261,-0.78 -2.6781,-0.8652 -0.1809,-0.252 -0.5273,-0.3477 -0.7789,-0.4316 -0.1813,-0.084 0.2516,-0.6004 0.348,-0.6004 0,-0.1797 -1.3937,-0.7793 -1.2148,-0.8645 0.0848,-0.084 0.1691,-0.084 0.1691,-0.084 0.084,-0.1797 -0.4312,-0.1797 -0.5172,-0.2636 0,-0.0848 0.1692,-0.168 0.2653,-0.168 -0.2653,-0.2649 -0.6965,-0.1809 -0.9613,-0.4324 -0.2516,-0.0969 -0.5153,-0.1809 -0.7688,-0.2637 -0.0969,-0.0852 0.0844,-0.2649 0.0844,-0.3496 -1.3817,-0.432 -1.7285,0.2644 -2.0781,0.1805 -0.1657,0 -0.3465,-0.2637 -0.4309,-0.3489 0,-0.6109 -0.4309,-1.4761 -1.0324,-1.3804 -0.1809,0.0847 0.1676,0.2519 0,0.6843 0,0 0,0 -0.1809,0 -0.2512,0.0852 -0.1687,-0.864 -0.7793,-0.5996 -0.0855,0 -0.1687,0.084 -0.2527,0 -0.6949,-0.2644 -1.0445,-0.5168 -1.8129,0.1672 1.2957,0.3484 1.5488,1.5613 -0.3481,1.0445 0.0844,0.7688 0.5165,1.0332 0.9477,1.0332 l 0,0 z m 12.5363,9.7739 0.0832,0.0828 c 0.4328,-0.9473 1.4754,-1.0449 2.4262,-0.8633 1.7285,0.252 4.0582,1.2129 5.534,1.2129 0.5148,0 1.7281,-0.2637 1.7281,-1.0449 0,-0.5164 -0.1773,-0.7813 -0.5277,-1.1172 -0.5164,-0.3477 -1.8125,-0.4324 -2.3281,-0.4324 -0.4321,0 -1.7297,0 -1.9934,0.5164 -0.3359,0.1691 -0.6012,0.2519 -1.0309,0.2519 -1.2148,0 -2.5953,-0.6836 -3.6289,-0.6836 -0.1793,0 -0.348,1.5489 -0.2625,2.0774 l 0,0 z m 2.6766,2.1609 c 0.5184,-0.348 0.8652,-0.9605 1.4769,-1.2969 0,-0.0957 -1.2972,-0.5281 -1.825,-0.5281 -0.948,0 -1.1164,0.4324 -1.1164,0.8645 -0.0832,0.5281 0.8649,1.2968 1.4645,0.9605 l 0,0 z m -24.45665,2.6777 11.75435,0 0,8.4649 18.1546,0 0,-8.4649 11.6704,0 0,-18.1543 -11.6704,0 0,-12.3671 -9.1625,-3.1922 -8.9921,3.1922 0,12.3671 -11.75435,0 0,18.1543"
         style="fill:#231f20;fill-opacity:1;fill-rule:evenodd;stroke:none"
         id="path114"
         inkscape:connector-curvature="0" />
      <path
         d="m 1.63164,14.1602 c 0,0 1.46524,0.6836 2.49883,0.3496 L 22.8109,7.84375 40.8691,14.2441 c 1.825,0.6961 3.2071,0 3.2071,-0.1671 l 0,-7.09458 c -0.6133,0.26172 -1.8145,0.7793 -3.2071,0.26172 L 22.8109,0.84375 4.82656,7.3293 c -1.38164,0.51445 -2.42617,0 -3.19492,-0.34688 l 0,7.17778"
         style="fill:#e5f7fd;fill-opacity:1;fill-rule:evenodd;stroke:none"
         id="path116"
         inkscape:connector-curvature="0" />
      <path
         d="M 42.9473,9.40547 C 42.4309,9.22578 41.5652,8.97461 41.0504,8.70898 c -0.0848,0 -0.1813,0.08477 -0.1813,0.08477 0.0965,0.26484 0.1813,0.52852 0.0965,0.78047 -0.2648,0.61208 -0.4324,1.21168 -0.6961,1.81248 -0.0843,0.1817 -0.348,0.2656 -0.6011,0.4324 0,0.0957 0.0839,0.0957 0.0839,0.0957 0.6016,0.2532 1.3825,0.4329 1.8993,0.6836 0.1796,0.0864 0.3464,0.1809 0.5148,0.0864 0.0953,-0.2524 0.3469,-0.4328 0.3469,-0.6836 -0.2516,-0.1821 -0.3469,0.082 -0.5153,0.1668 -0.4328,0.084 -0.8632,-0.0848 -1.2121,-0.2532 -0.0851,0 -0.0851,-0.0957 0,-0.1785 0.0832,-0.2527 0.1797,-0.5175 0.2645,-0.782 0.3465,0.0984 0.7808,0.1812 0.8617,0.5293 0.0859,0.0848 0.0859,0.0848 0.1703,0.0848 0.1793,-0.1817 0.084,-0.2637 0.1793,-0.3496 0.086,-0.1661 0.1692,-0.3465 0.086,-0.5157 -0.1813,0 -0.3497,0.3496 -0.6133,0.1692 -0.1692,-0.0864 -0.3375,-0.0864 -0.5172,-0.2532 0.0848,-0.3484 0.1797,-0.78121 0.4344,-1.12887 0.3464,-0.16796 1.0425,0.08399 1.2117,0.51637 0.084,0.1797 0,0.5161 0.1672,0.6125 0.0965,0 0.1789,-0.1796 0.1789,-0.1796 0,-0.3497 0.0859,-0.86528 -0.2621,-1.03403 l 0,0"
         style="fill:#231f20;fill-opacity:1;fill-rule:evenodd;stroke:none"
         id="path118"
         inkscape:connector-curvature="0" />
      <path
         d="M 39.3203,8.19336 C 39.1422,8.10938 38.8891,8.02539 38.7078,8.02539 c -0.084,0.08399 0,0.16797 0.0953,0.25273 0.086,0.6125 -0.5273,1.81168 -0.8617,2.67618 -0.1812,0 -0.5309,-0.2512 -0.6137,-0.4316 -0.0828,-0.168 0,-0.3364 -0.1683,-0.5161 -0.2641,0 -0.1813,0.3481 -0.2641,0.4329 0,0.1796 -0.0855,0.2636 -0.0855,0.3464 0,0.1684 1.898,0.7825 2.5945,1.0332 0.2641,0.0957 0.2641,-0.2507 0.348,-0.3355 0.0844,-0.1789 0.252,-0.3481 0.0844,-0.5293 -0.2637,0 -0.2637,0.1812 -0.4324,0.2645 -0.1668,0.1679 -0.5152,0.0859 -0.6965,0 -0.1668,0 -0.084,-0.1661 -0.084,-0.1661 0.1793,-0.698 0.5184,-1.64723 0.8649,-2.25895 C 39.573,8.62617 39.8367,8.62617 39.9215,8.4582 39.8367,8.27812 39.573,8.27812 39.3203,8.19336 l 0,0"
         style="fill:#231f20;fill-opacity:1;fill-rule:evenodd;stroke:none"
         id="path120"
         inkscape:connector-curvature="0" />
      <path
         d="m 36.8953,7.41328 c -0.8637,0.61211 -1.6441,1.2957 -2.509,1.90899 l 0,0 c 0.2637,-0.78243 0.3481,-1.56055 0.9614,-2.16211 0,-0.17774 0.25,-0.09493 0.1675,-0.26368 -0.0843,-0.08281 -0.348,-0.08281 -0.4328,-0.16679 -0.2656,0 -0.4324,-0.26563 -0.5172,0 0.2516,0.68359 -0.1789,1.37969 -0.348,2.06406 -0.0824,0.26484 -0.1668,0.52852 -0.2637,0.69648 -0.3375,0 -0.5148,-0.43164 -0.5996,-0.69648 C 33.2695,8.70898 33.0883,8.89062 33.0043,8.89062 32.9199,9.05859 32.7527,9.22578 32.4887,9.1418 32.2234,9.05859 31.9734,8.97461 31.7066,8.89062 c 0.086,-0.35078 0.1813,-0.69726 0.35,-1.04687 0,-0.08203 0.0856,0 0.0856,0 0.3465,0.08594 0.6105,0.18164 0.6961,0.43437 l 0.0816,0 c 0.1684,-0.16874 0.2653,-0.34843 0.3496,-0.59921 -0.1812,0 -0.2652,0.08281 -0.3496,0.08281 -0.2621,-0.08281 -0.5172,-0.08281 -0.7777,-0.26445 0.0812,-0.33711 0.2605,-0.76758 0.4297,-1.11641 0.0859,-0.18047 0.348,-0.08398 0.6133,-0.08398 0.5156,0.16718 0.7683,0.68554 0.7683,1.20039 0.0969,0 0.1813,0.0957 0.1813,0 0.1672,-0.25313 0.1672,-0.51485 0.2515,-0.76758 0,-0.18164 0.0965,-0.26563 -0.0843,-0.26563 -0.686,-0.26367 -1.2137,-0.43281 -1.8993,-0.69648 -0.1793,0 -0.2605,-0.08281 -0.4293,-0.1668 -0.0855,0.08399 -0.0855,0 -0.0855,0.08399 -0.0953,0 0,0.08281 0,0.17968 0.1687,0.59961 -0.0953,1.03203 -0.3469,1.89727 -0.0844,0.16797 -0.3496,0.94726 -0.6117,0.94726 -0.0848,0 -0.0848,-0.08281 -0.0848,-0.16914 l 0,-0.17734 c -0.0843,0.0957 -0.2527,0.0957 -0.4324,0 0,-0.08438 0,-0.08438 0,-0.08438 0,-0.34843 0.0828,-0.68515 0.2641,-1.03398 0.2531,-0.51445 0.348,-1.21289 0.8648,-1.64336 0.0844,-0.08516 0,-0.08516 -0.0844,-0.16914 -0.2652,-0.09648 -0.6121,-0.09648 -0.8648,-0.26562 -0.1797,0.16914 0,0.3496 0,0.51875 0,0.34648 -0.0969,0.61211 -0.2637,0.94804 C 30.2438,7.06523 30.1594,7.3293 29.9801,7.76172 29.8953,7.59297 29.8109,7.41328 29.8109,7.16016 29.7281,6.54805 29.6316,5.94805 29.6316,5.25195 c 0,0 -0.0843,0 -0.0843,-0.08593 -0.0844,0 -0.1672,0.08593 -0.1672,0.16914 -0.5184,0.43242 -1.2145,1.39453 -1.8125,1.825 0,0 0,-0.26368 0.0824,-0.26368 0.2516,-0.69609 0.348,-1.2957 0.6855,-1.89531 0.0954,-0.18203 0.2622,-0.26562 0.4313,-0.34961 -0.0848,0 0,-0.0832 -0.0848,-0.0832 -0.1683,-0.09648 -0.2511,-0.09648 -0.4304,-0.18164 -0.1692,0 -0.434,-0.25117 -0.5157,-0.08203 0.2621,0.43086 0,1.03047 -0.0859,1.38008 -0.1809,0.51562 -0.3496,0.94804 -0.5152,1.47539 l -0.0953,0 C 26.8691,7.06523 26.8691,6.81367 26.7852,6.54805 26.7008,6.46406 26.7008,6.46406 26.6039,6.46406 c 0,0.16875 0,0.43242 0.0969,0.60117 0,0.26407 0.1683,0.52774 0.434,0.61368 0.2515,0.08281 0.6828,0.16484 0.8632,-0.08594 0.5157,-0.52774 0.8637,-1.04492 1.3821,-1.47578 l 0.0828,0.0832 c 0,0.61328 0.0844,1.21289 0.1687,1.7293 0,0.26367 0.0965,0.52851 0.4325,0.69648 0.0953,0.08281 0.348,0.08281 0.5277,0 0.0844,0.08281 0.2527,0.26445 0.3375,0.26445 0.6961,0.25118 1.2941,0.51485 1.9906,0.6836 l 0.0844,0 c 0.084,-0.16875 0.084,-0.34844 0.2652,-0.34844 0.0844,0.17969 0.0844,0.34844 0.2516,0.5293 0.2656,0.25152 0.7809,0.33472 1.1289,0.08281 0.6012,-0.26367 1.6438,-1.29805 2.0781,-1.47539 -0.1793,0.52812 -0.348,0.95977 -0.5179,1.39258 -0.1786,0.16601 -0.3469,0.51562 -0.6125,0.59962 -0.0825,0 -0.0825,0.0848 -0.0825,0.0848 0.3481,0.0832 0.695,0.2636 1.0336,0.3464 0.1793,-0.0828 -0.0859,-0.2632 -0.0859,-0.4312 0.0859,-0.6965 0.3469,-1.29611 0.5152,-1.8965 0.1813,-0.26484 0.2668,-0.61445 0.3496,-0.86523 0.0828,-0.0957 -0.3496,-0.26367 -0.4324,-0.17969 l 0,0"
         style="fill:#231f20;fill-opacity:1;fill-rule:evenodd;stroke:none"
         id="path122"
         inkscape:connector-curvature="0" />
      <path
         d="M 25.573,6.29688 C 25.4887,6.20039 25.1406,6.72969 24.7926,6.54805 24.6254,6.46406 24.2773,6.46406 24.2773,6.20039 24.541,5.60078 24.6254,5.43164 24.7926,4.73555 24.877,4.38672 25.225,3.70312 25.573,3.60859 L 25.6578,3.52266 C 25.3082,3.35469 25.0566,3.35469 24.7926,3.2707 24.6254,3.17578 24.4441,3.08984 24.2773,3.08984 c -0.0859,0.18086 0.1668,0.26485 0.1668,0.43282 0,0.26328 -0.0836,0.61289 -0.2527,1.21289 -0.1793,0.34765 -0.4324,1.2125 -0.5152,1.38164 -0.3481,-0.08594 -0.6137,-0.16914 -0.8653,-0.51641 0,-0.08516 -0.0964,-0.26562 -0.0964,-0.43476 l -0.2516,0 C 22.3785,5.51562 22.3785,5.94805 22.032,6.11719 21.9477,6.20039 21.5152,6.29688 21.2516,6.38086 20.902,6.46406 20.902,6.11719 20.902,5.86445 20.8188,5.68477 20.5551,5.43164 20.8188,5.33516 21.0824,5.16602 21.4184,5.0832 21.7668,5.16602 21.8512,5.0832 21.8512,5.00117 21.7668,4.81914 21.682,4.73555 21.682,4.56836 21.598,4.47188 21.5152,4.56836 21.4184,4.73555 21.2516,4.81914 21.0824,5.00117 20.902,5.00117 20.7344,5.0832 l -0.1793,0 c -0.086,-0.43164 -0.4324,-0.86445 -0.2547,-1.21093 0,-0.16915 0.5184,-0.34961 0.782,-0.43282 0.4328,-0.08476 0.8653,0.08321 1.1153,0.43282 0.0859,0 0.1808,0 0.2652,-0.08633 l 0,-0.08282 C 22.2836,3.43945 22.1148,3.00664 21.7668,2.92383 c -0.7809,0.25195 -1.8133,0.68476 -2.5934,0.94844 0,0.08281 0,0.08281 0.084,0.08281 0.4324,0 0.6961,1.12812 0.7809,1.38008 0.1808,0.52929 0.2621,0.78203 0.348,1.21289 0,0.18164 -0.1672,0.26562 -0.1672,0.43437 0.25,0.08281 0.5153,-0.08594 0.8633,-0.16875 0.336,-0.18086 0.6844,-0.34961 1.1153,-0.43281 0.1808,-0.08398 0.4355,-0.18047 0.7824,-0.08398 0.8644,0.25117 1.6453,0.5996 2.5086,0.86328 0.0843,-0.26368 0.3504,-0.86328 0.2535,-0.86328 l -0.1692,0 0,0"
         style="fill:#231f20;fill-opacity:1;fill-rule:evenodd;stroke:none"
         id="path124"
         inkscape:connector-curvature="0" />
      <path
         d="m 18.573,7.41328 c -0.1804,0 -0.348,-0.25312 -0.348,-0.43086 C 18.0566,6.63281 17.9602,6.38086 17.791,6.03125 17.6238,5.60078 17.5305,5.0832 17.0945,4.9043 c -0.25,-0.08516 -0.334,-0.16875 -0.5148,-0.08516 -0.5996,0 -1.5477,0.43281 -1.6442,0.94844 -0.0843,0.43281 0.1805,0.86523 0.3481,1.29765 0.1809,0.43204 0.5152,0.86446 0.348,1.39297 -0.0843,0.08164 -0.1671,0.08164 -0.0843,0.16797 0,0.08281 0.1672,0.08281 0.2515,0 C 15.9801,8.53984 16.3297,8.4582 16.4949,8.3625 16.5797,8.27812 16.8445,8.27812 16.7605,8.10938 16.5797,8.02539 16.3297,7.92969 16.2328,7.76172 15.8941,7.16016 15.7145,6.54805 15.5473,5.94805 c -0.0828,-0.26328 0.1672,-0.51641 0.3468,-0.6961 0.1684,-0.08593 0.5168,-0.16875 0.77,-0.16875 0.6117,0.08282 0.8664,1.21368 1.0445,1.73047 0.0824,0.25156 0.1684,0.59961 0,0.94805 -0.0848,0.08203 0,0.08203 0,0.08203 0.348,-0.08203 0.5996,-0.16484 0.9476,-0.25078 0,-0.0957 0,-0.17969 -0.0832,-0.17969 l 0,0"
         style="fill:#231f20;fill-opacity:1;fill-rule:evenodd;stroke:none"
         id="path126"
         inkscape:connector-curvature="0" />
      <path
         d="M 15.032,8.70898 C 14.598,8.3625 14.3359,7.76172 14.1672,7.24414 13.9859,6.89648 13.8188,6.46406 13.7344,6.11719 13.6395,6.03125 13.6395,5.94805 13.5535,5.86445 c -0.0828,0 -0.2512,0 -0.348,0.0836 0,0 -0.0828,0.0832 -0.0828,0.16914 -0.0844,0.17969 -0.1684,0.86523 -0.2532,1.47578 -0.0953,0.33672 -0.1808,0.76953 -0.264,1.20078 -0.084,0.09687 -0.084,0.34805 -0.1668,0.26484 C 12.1734,8.62617 12.0891,8.3625 11.9094,7.84375 11.8266,7.49727 11.6562,7.06523 11.7422,6.81367 c 0.0844,-0.08398 0.1672,-0.18086 0.0844,-0.26562 -0.0844,-0.08399 -0.2528,0 -0.3496,0.08476 -0.1688,0.09688 -0.4309,0.18086 -0.6,0.18086 0,0.16875 0.0832,0.16875 0.1691,0.25156 0.3465,0.09493 0.4309,0.69649 0.6101,0.96016 0.1704,0.51445 0.2532,0.68359 0.4329,1.11641 0.0843,0.08398 0.1683,0.26367 0.0843,0.34843 -0.264,0.08399 -0.4312,-0.08476 -0.5996,-0.16796 -0.0968,0 -0.1812,0 -0.0968,0.0832 0,0.08476 0.0968,0.16875 0.2652,0.25273 0.1672,0.09688 0.4312,0.26289 0.6965,0.17969 0.25,-0.08281 0.5156,-0.17969 0.5156,-0.34766 0.348,-0.69648 0.4305,-1.46484 0.5164,-2.24609 0.0828,-0.17891 0,-0.26172 0.0828,-0.43047 0.2653,0.43047 0.3485,0.86524 0.5168,1.29571 0,0.34882 0.1797,0.78124 -0.0844,1.03242 0,0.08398 0.0844,0.08398 0.0844,0.08398 0.4324,-0.08398 0.7809,-0.25117 1.1274,-0.43203 0,-0.08477 -0.0817,-0.08477 -0.1657,-0.08477 l 0,0"
         style="fill:#231f20;fill-opacity:1;fill-rule:evenodd;stroke:none"
         id="path128"
         inkscape:connector-curvature="0" />
      <path
         d="m 10.4449,6.98242 c -0.264,0.08281 -0.69646,0.26172 -1.0324,0.34688 -0.09805,0 -0.17969,0.08398 -0.09805,0.16797 0.09805,0.0957 0.18047,0 0.18047,0 C 9.84336,7.76172 9.74844,8.10938 9.74844,8.4582 9.4125,8.62617 8.98008,8.79375 8.71641,8.89062 8.45078,8.53984 8.28203,8.10938 8.36836,7.76172 c -0.08633,-0.16875 -0.25352,0 -0.34844,0 -0.16875,0.08203 -0.3375,0.16797 -0.51719,0.26367 -0.08437,0 -0.16679,0 -0.25273,0.08399 0.08594,0.16874 0.25273,0 0.43242,0.16874 0.68594,0.69649 1.20078,1.38008 1.73008,2.07658 0.08242,0.0848 -0.26562,0.0848 -0.43242,0.0848 -0.18125,0 -0.26367,-0.1688 -0.34844,-0.0848 l 0,0.0848 c 0.34844,0.2636 0.78086,0.5148 1.21172,0.3464 0.43244,-0.1668 0.51714,-0.6961 0.51714,-1.1277 0,-0.25273 0,-1.63281 0,-2.06523 0,-0.17969 0.0844,-0.34883 0.1688,-0.52774 0,0 0,-0.08281 -0.0844,-0.08281 l 0,0 z m -0.7824,1.9082 c -0.16758,0 -0.59805,0.08399 -0.7793,0.25118 0.18125,0.34843 0.5293,0.61328 0.7793,0.948 0.08594,-0.0832 0,-1.11519 0,-1.19918 l 0,0"
         style="fill:#231f20;fill-opacity:1;fill-rule:evenodd;stroke:none"
         id="path130"
         inkscape:connector-curvature="0" />
      <path
         d="M 8.11484,10.9543 C 7.93555,11.0527 7.85117,11.1355 7.68242,11.0527 7.50273,10.8723 7.33594,10.3547 7.25,10.0898 7.07031,9.57422 6.90195,9.05859 6.72344,8.62617 c 0,-0.08633 0.17851,-0.26367 0.09531,-0.43281 -0.09531,0 -0.1793,0 -0.1793,0 C 6.38477,8.3625 6.12266,8.4582 5.85742,8.53984 5.77422,8.62617 5.68867,8.62617 5.77422,8.70898 5.9543,8.79375 6.28984,8.97461 6.38477,9.32227 c 0.16875,0.43281 0.43398,0.94843 0.60156,1.46363 -0.08438,0 -0.08438,0 -0.08438,0 C 6.20547,10.3547 5.60586,9.75508 4.99219,9.1418 c -0.08438,-0.08321 -0.16563,0 -0.16563,0 C 4.74062,9.57422 4.74062,9.83789 4.74062,10.6191 4.65781,10.7031 4.65781,11.5684 4.55977,11.6523 4.30977,11.3047 4.13047,10.7859 4.04453,10.3547 3.87617,10.0898 3.69648,9.6582 3.96016,9.32227 c 0,0 0,-0.09649 -0.08399,-0.09649 C 3.5293,9.40547 3.1793,9.49023 2.83281,9.6582 c 0,0.09688 0,0 0,0.09688 0.43086,0.08281 0.69649,0.68442 0.9586,1.03082 0.16875,0.4329 0.43437,0.8664 0.60117,1.3821 0,0.084 -0.26211,0.1797 -0.34805,0.1797 C 3.87617,12.4324 3.69648,12.252 3.5293,12.168 c -0.08438,0.084 -0.08438,0.1797 0,0.1797 0.16718,0.2507 0.51523,0.4316 0.86328,0.3371 0.34804,-0.0864 0.69648,-0.3371 0.78086,-0.6016 0.08437,-0.6965 0.08437,-1.3801 0.16836,-2.0766 l 0,-0.08551 c 0.69648,0.60161 1.29765,1.29771 1.9082,1.56251 0.43242,0.0848 0.60117,0 0.68555,-0.0969 0.17929,-0.082 0.26367,-0.1679 0.26367,-0.2512 0,-0.0828 -0.08438,-0.0828 -0.08438,-0.1812 l 0,0"
         style="fill:#231f20;fill-opacity:1;fill-rule:evenodd;stroke:none"
         id="path132"
         inkscape:connector-curvature="0" />
      <path
         d="m 1.96797,13.8137 c 0,0 1.12891,0.5996 2.1625,0.1668 L 22.8109,7.3293 40.8691,13.8137 c 1.9098,0.5996 2.8575,0.0828 2.8575,0 l 0,-6.22073 C 43.2094,7.92969 42.2617,8.19336 40.8691,7.67891 L 22.8109,1.27656 4.82656,7.76172 C 3.44492,8.27812 2.74844,7.92969 1.96797,7.59297 l 0,6.22073 z m -1.032423,0.5156 c 0,0.1805 1.812893,1.1289 3.891013,0.3477 L 22.8109,8.3625 40.8691,14.677 c 2.0782,0.7812 3.8911,-0.3477 3.8911,-0.3477 l 0,-8.38125 c -0.434,0.34883 -2.0661,1.29609 -3.8911,0.68476 L 22.8109,0.246094 4.82656,6.72969 C 3.09688,7.3293 1.63164,6.29688 0.935547,5.94805 l 0,8.38125"
         style="fill:#231f20;fill-opacity:1;fill-rule:evenodd;stroke:none"
         id="path134"
         inkscape:connector-curvature="0" />
      <path
         d="m 2.23281,13.6445 c 0,0 0.94649,0.4325 1.89766,0.0852 L 22.8109,7.06523 40.8691,13.548 c 1.6442,0.529 2.6907,0.1817 2.6907,0.0965 l 0,-5.71481 c -0.6125,0.34843 -1.3934,0.43281 -2.6907,0 L 22.8109,1.62617 4.82656,8.02539 C 3.5293,8.53984 3.01211,8.19336 2.23281,7.92969 l 0,5.71481 z M 2.4957,13.3809 c 0,0 0.76797,0.4328 1.63477,0.0832 L 22.8109,6.81367 40.8691,13.2121 c 1.3926,0.5176 2.4262,0.3359 2.4262,0.1688 l 0,-5.10278 C 42.7789,8.53984 41.998,8.62617 40.8691,8.19336 L 22.8109,1.87773 4.82656,8.27812 c -1.21328,0.43086 -1.56289,0.34805 -2.33086,0 l 0,5.10278"
         style="fill:#a89921;fill-opacity:1;fill-rule:evenodd;stroke:none"
         id="path136"
         inkscape:connector-curvature="0" />
      <path
         d="m 35.7789,61.4434 0,-3.5414 -1.2961,0.9476 0,1.7301 1.2961,0.8637 0,0"
         style="fill:#a89921;fill-opacity:1;fill-rule:evenodd;stroke:none"
         id="path138"
         inkscape:connector-curvature="0" />
      <path
         d="m 35.4309,60.7594 0,-2.0778 -0.9481,0.6004 0,0.8645 0.9481,0.6129 0,0"
         style="fill:#231f20;fill-opacity:1;fill-rule:evenodd;stroke:none"
         id="path140"
         inkscape:connector-curvature="0" />
      <path
         d="m 35.4309,60.6633 0,-1.8981 -0.9481,0.5168 0,0.7809 0.9481,0.6004 0,0"
         style="fill:#fff200;fill-opacity:1;fill-rule:evenodd;stroke:none"
         id="path142"
         inkscape:connector-curvature="0" />
      <path
         d="m 35.7789,68.1074 0,-3.6383 -1.2961,0.9489 0,1.7285 1.2961,0.9609 0,0"
         style="fill:#a89921;fill-opacity:1;fill-rule:evenodd;stroke:none"
         id="path144"
         inkscape:connector-curvature="0" />
      <path
         d="m 35.4309,67.3266 0,-2.0766 -0.9481,0.5996 0,0.8652 0.9481,0.6118 0,0"
         style="fill:#231f20;fill-opacity:1;fill-rule:evenodd;stroke:none"
         id="path146"
         inkscape:connector-curvature="0" />
      <path
         d="m 35.4309,67.2422 0,-1.9078 -0.9481,0.6121 0,0.684 0.9481,0.6117 0,0"
         style="fill:#fff200;fill-opacity:1;fill-rule:evenodd;stroke:none"
         id="path148"
         inkscape:connector-curvature="0" />
      <path
         d="m 13.1227,68.7074 0,-10.6386 c 3.457,0 7.7793,0.7808 8.2128,0.6964 0.9481,0 1.4754,-0.5164 1.5586,-0.5996 0,0.0832 0.5164,0.5996 1.118,0.5996 0.8649,0.0844 5.0184,-0.7797 8.6457,-0.6964 l 0,10.6386 -8.5508,0 c -0.9586,0 -1.2129,-0.6 -1.2961,-0.6 0,0 -0.348,0.6 -1.1289,0.6 l -8.5593,0 0,0"
         style="fill:#e5f7fd;fill-opacity:1;fill-rule:evenodd;stroke:none"
         id="path150"
         inkscape:connector-curvature="0" />
      <path
         d="m 13.1227,68.7074 0,-10.6386 c 3.457,0 7.7793,0.7808 8.2128,0.6964 0.9481,0 1.4754,-0.5164 1.5586,-0.5996 0,0.0832 0.5164,0.5996 1.118,0.5996 0.8649,0.0844 5.0184,-0.7797 8.6457,-0.6964 l 0,10.6386 -8.5508,0 c -0.9586,0 -1.2129,-0.6 -1.2961,-0.6 0,0 -0.348,0.6 -1.1289,0.6 l -8.5593,0 0,0 z"
         style="fill:none;stroke:#231f20;stroke-width:0.50400001;stroke-linecap:butt;stroke-linejoin:miter;stroke-miterlimit:2.61310005;stroke-opacity:1;stroke-dasharray:none"
         id="path152"
         inkscape:connector-curvature="0" />
      <path
         d="M 7.7668,39.1465 9.31445,39.9141 8.54727,38.3672 10.2758,37.7539 8.54727,37.2375 9.31445,35.6895 7.7668,36.457 7.15469,34.7285 6.55352,36.457 4.99219,35.593 l 0.78203,1.6445 -1.72969,0.5164 1.72969,0.6133 -0.78203,1.5469 1.56133,-0.7676 0.60117,1.7297 0.61211,-1.7297 0,0"
         style="fill:#a89921;fill-opacity:1;fill-rule:evenodd;stroke:none"
         id="path154"
         inkscape:connector-curvature="0" />
      <path
         d="m 23.4105,50.902 1.5629,0.7796 -0.782,-1.4761 1.7301,-0.6008 -1.7301,-0.6129 0.782,-1.5484 -1.5629,0.7808 -0.5996,-1.7285 -0.5273,1.7285 -1.6336,-0.7808 0.8652,1.5484 -1.73,0.6129 1.73,0.6008 -0.7808,1.4761 1.5492,-0.7796 0.5273,1.7285 0.5996,-1.7285 0,0"
         style="fill:#a89921;fill-opacity:1;fill-rule:evenodd;stroke:none"
         id="path156"
         inkscape:connector-curvature="0" />
      <path
         d="m 38.9723,39.1465 1.6453,0.7676 -0.8653,-1.5469 1.7305,-0.6133 -1.7305,-0.5164 0.8653,-1.548 -1.6453,0.7675 -0.5157,-1.7285 -0.6121,1.7285 -1.6343,-0.864 0.866,1.6445 -1.7285,0.5164 1.7285,0.6133 -0.7824,1.5469 1.5507,-0.7676 0.6121,1.7297 0.5157,-1.7297 0,0"
         style="fill:#a89921;fill-opacity:1;fill-rule:evenodd;stroke:none"
         id="path158"
         inkscape:connector-curvature="0" />
      <path
         d="m 23.4105,24.3535 1.5629,0.8653 -0.782,-1.6329 1.7301,-0.5285 -1.7301,-0.6004 0.782,-1.5605 -1.5629,0.7805 -0.5996,-1.729 -0.5273,1.729 -1.6336,-0.7805 0.8652,1.5605 -1.73,0.6004 1.73,0.5285 -0.7808,1.6329 1.5492,-0.8653 0.5273,1.7297 0.5996,-1.7297 0,0"
         style="fill:#a89921;fill-opacity:1;fill-rule:evenodd;stroke:none"
         id="path160"
         inkscape:connector-curvature="0" />
      <path
         d="M 7.93555,39.5781 9.74844,40.3477 8.98008,38.5344 10.877,37.7539 8.98008,37.0703 9.74844,35.2566 7.93555,35.9414 7.15469,34.1277 6.4707,35.9414 4.55977,35.1602 l 0.78203,1.9101 -1.8125,0.6836 1.8125,0.7805 -0.78203,1.8133 1.91093,-0.7696 0.68399,1.8985 0.78086,-1.8985 0,0 z M 7.7668,39.0508 9.23281,39.8312 8.45078,38.3672 10.0953,37.7539 8.45078,37.2375 9.23281,35.7734 7.7668,36.5527 7.15469,34.9094 6.63945,36.5527 5.08906,35.7734 l 0.76836,1.4641 -1.63164,0.5164 1.63164,0.6133 -0.76836,1.464 1.55039,-0.7804 0.51524,1.6457 0.61211,-1.6457 0,0"
         style="fill:#231f20;fill-opacity:1;fill-rule:evenodd;stroke:none"
         id="path162"
         inkscape:connector-curvature="0" />
      <path
         d="m 23.759,52.0176 2.414,0.9609 -0.948,-2.4246 2.425,-0.9492 -2.425,-0.9488 0.948,-2.425 -2.414,0.9488 -0.9481,-2.4137 -0.9597,2.4137 -2.4125,-0.9488 1.0304,2.425 -2.4125,0.9488 2.4125,0.9492 -1.0304,2.4246 2.4125,-0.9609 0.782,1.7285 0.4293,0 0.6965,-1.7285 0,0 z m -0.0828,-0.336 2.1629,0.8645 -0.8657,-2.1609 2.1614,-0.7805 -2.1614,-0.8645 0.8657,-2.1609 -2.1629,0.8641 -0.8653,-2.0766 -0.7789,2.0766 -2.1609,-0.8641 0.8633,2.1609 -2.0782,0.8645 2.0782,0.8644 -0.8633,2.077 2.1609,-0.8645 0.6825,1.8977 0.2656,-0.0848 0.6961,-1.8129 0,0"
         style="fill:#fff200;fill-opacity:1;fill-rule:evenodd;stroke:none"
         id="path164"
         inkscape:connector-curvature="0" />
      <path
         d="m 39.4043,40.1797 2.4269,0.9492 -0.9621,-2.4148 2.4262,-0.9602 -2.4262,-0.948 0.9621,-2.4133 -2.4269,0.948 L 38.4566,33 l -0.9492,2.3406 -2.5094,-0.948 1.0336,2.4133 -2.4156,0.948 2.4156,0.9602 -0.9492,2.4148 2.425,-0.9492 0.9492,2.425 0.9477,-2.425 0,0 z m -0.084,-0.2656 2.0766,0.8664 -0.8637,-2.1614 2.1609,-0.8652 -2.1609,-0.7684 0.8637,-2.1613 -2.0766,0.8653 -0.8637,-2.1622 -0.8648,2.1622 -2.1609,-0.8653 0.8629,2.1613 -1.9918,0.7684 1.9918,0.8652 -0.8629,2.1614 2.1609,-0.8664 0.8648,2.1625 0.8637,-2.1625 0,0"
         style="fill:#fff200;fill-opacity:1;fill-rule:evenodd;stroke:none"
         id="path166"
         inkscape:connector-curvature="0" />
      <path
         d="m 23.759,25.4836 2.414,0.948 -0.948,-2.414 2.425,-0.9602 -2.425,-0.9461 0.948,-2.416 -2.414,0.9492 -0.9481,-2.4257 -0.9597,2.4257 -2.4125,-0.9492 1.0304,2.416 -2.4125,0.9461 2.4125,0.9602 -1.0304,2.414 2.4125,-0.948 0.9597,2.3289 0.9481,-2.3289 0,0 z M 23.6762,25.1355 25.8391,26 l -0.8657,-2.0781 2.1614,-0.8645 -2.1614,-0.864 0.8657,-2.1622 -2.1629,0.8653 -0.8653,-2.0645 -0.7789,2.1614 -2.1609,-0.8645 0.8633,2.0645 -2.0782,0.864 2.0782,0.8645 -0.8633,2.0781 2.1609,-0.8645 0.7789,2.1614 0.8653,-2.1614 0,0"
         style="fill:#fff200;fill-opacity:1;fill-rule:evenodd;stroke:none"
         id="path168"
         inkscape:connector-curvature="0" />
      <path
         d="m 23.5797,51.4176 1.8234,0.7812 -0.6945,-1.9097 1.8125,-0.6844 -1.8125,-0.7801 0.6945,-1.8141 -1.8234,0.7809 -0.7688,-1.9086 -0.6961,1.9086 -1.8957,-0.7809 0.7668,1.8141 -1.8125,0.7801 1.8125,0.6844 -0.6855,1.9097 1.8144,-0.7812 0.6961,1.8133 0.7688,-1.8133 0,0 z m -0.1692,-0.5156 1.4665,0.6839 -0.77,-1.4648 1.7321,-0.5164 -1.7321,-0.6129 0.77,-1.4641 -1.4665,0.7797 -0.5996,-1.6449 -0.5273,1.6449 -1.5492,-0.7797 0.8636,1.4641 -1.6445,0.6129 1.6445,0.5164 -0.7792,1.4648 1.4648,-0.6839 0.5273,1.6441 0.5996,-1.6441 0,0"
         style="fill:#231f20;fill-opacity:1;fill-rule:evenodd;stroke:none"
         id="path170"
         inkscape:connector-curvature="0" />
      <path
         d="m 39.2375,39.5781 1.8129,0.7696 -0.7809,-1.8133 1.8969,-0.7805 -1.8969,-0.6836 0.7809,-1.8137 -1.8129,0.6848 -0.7809,-1.8137 -0.7808,1.8137 -1.8125,-0.7812 0.6855,1.9101 -1.8144,0.6836 1.8144,0.7805 -0.6855,1.8133 1.8125,-0.7696 0.7808,1.8985 0.7809,-1.8985 0,0 z m -0.2652,-0.5273 1.5609,0.7804 -0.7809,-1.464 1.6446,-0.6133 -1.6446,-0.5164 0.7809,-1.4641 -1.5609,0.7793 -0.5157,-1.6433 -0.6121,1.6433 -1.4644,-0.7793 0.7793,1.4641 -1.6442,0.5164 1.6442,0.6133 -0.7793,1.464 1.4644,-0.7804 0.6121,1.6457 0.5157,-1.6457 0,0"
         style="fill:#231f20;fill-opacity:1;fill-rule:evenodd;stroke:none"
         id="path172"
         inkscape:connector-curvature="0" />
      <path
         d="m 23.5797,24.8828 1.8234,0.7688 -0.6945,-1.8125 1.8125,-0.7817 -1.8125,-0.7683 0.6945,-1.825 -1.8234,0.782 -0.7688,-1.8992 -0.6961,1.8992 -1.8957,-0.782 0.7668,1.825 -1.8125,0.7683 1.8125,0.7817 -0.6855,1.8125 1.8144,-0.7688 0.6961,1.8137 0.7688,-1.8137 0,0 z m -0.1692,-0.5293 1.4665,0.782 -0.77,-1.5496 1.7321,-0.5285 -1.7321,-0.5152 0.77,-1.5488 -1.4665,0.7671 -0.5996,-1.6316 -0.5273,1.6316 -1.5492,-0.7671 0.8636,1.5488 -1.6445,0.5152 1.6445,0.5285 -0.7792,1.5496 1.4648,-0.782 0.5273,1.6465 0.5996,-1.6465 0,0"
         style="fill:#231f20;fill-opacity:1;fill-rule:evenodd;stroke:none"
         id="path174"
         inkscape:connector-curvature="0" />
      <path
         d="m 2.40039,45.282 11.76681,0 0,8.561 17.4582,0 0,-8.561 11.6699,0 0,-17.3738 -11.6699,0 0,-12.45 -8.8145,-3.1105 -8.6437,3.1105 0,12.45 -11.76681,0 0,17.3738 z m 0.34805,-0.348 11.75426,0 0,8.5605 16.6887,0 0,-8.5605 11.8391,0 0,-16.6891 -11.8391,0 0,-12.4375 -8.3805,-3.0281 -8.3082,3.0281 0,12.4375 -11.75426,0 0,16.6891"
         style="fill:#fff200;fill-opacity:1;fill-rule:evenodd;stroke:none"
         id="path176"
         inkscape:connector-curvature="0" />
      <path
         d="m 11.3082,31.1023 c 0.6012,0.6008 -0.4312,0.9485 -0.7789,0.8657 0.1793,0.5144 0.8633,0.948 1.3801,0.6961 0.348,0.2519 0.6961,0.2519 0.8648,-0.2645 0.1801,-0.5168 0.6965,-0.6008 1.2117,-0.6008 0.8653,0 1.2977,0.6836 1.2118,1.4649 -0.0817,0.2636 0.1683,0.7801 0.4339,1.0324 0,0.0965 -0.9492,0.0965 -1.1289,0.8641 -0.5168,-0.2508 -1.6332,-0.336 -1.8972,0.0964 0.0832,0 0.8652,0.2524 0.6968,0.5996 -0.264,0.0852 -0.4328,0 -0.6968,-0.0828 0,0.3477 0.6,0.6836 0.5172,0.7793 -0.0844,0.1692 -0.434,0 -0.7809,0 0.2637,0.1692 0.4324,0.4328 0.4324,0.6848 -0.0855,0.4336 -0.5168,0.3484 -0.8648,0.2645 -0.0828,0.3476 0.6961,0.78 0.5293,0.9484 -0.0969,0.1687 -0.3496,0 -0.5293,0.084 0,0.0847 0.0949,0.0847 0.0949,0.0847 0.1691,0.1797 0.3375,0.2625 0.3375,0.5274 0,0.168 -0.2527,0.168 -0.5152,0.084 0.2625,0.6007 0.6949,0.6836 1.2117,1.0332 0.0844,0.084 0.0844,0.3476 -0.084,0.3476 -0.3488,0 -0.6125,0.1692 -0.7809,0.4336 0,0.084 0,0.2637 0,0.3477 0.1684,0 0.3481,-0.084 0.5153,0 0.1808,0.1676 0.1808,0.2519 0,0.3476 -0.1672,0 -0.4313,-0.0957 -0.5996,0 -0.2625,0.0844 -0.0848,0.4328 -0.3469,0.3364 -0.6012,0.1796 -0.6012,1.0445 -0.3496,1.3929 0,0 0.6117,-0.7804 0.7808,-0.2644 -0.0843,0.5168 -0.5172,0.7797 -0.9476,0.8648 0.5164,0.5996 1.2957,0.2641 1.6437,0 0.0848,-0.0851 0.1688,0 0.336,0 0,0.1676 0.1793,0.1676 0.0968,0.3481 -0.1796,0.348 -0.348,0.348 -0.6136,0.4316 0.434,0.4324 1.3816,0.2524 1.7297,-0.3476 0.1796,-0.2645 0.6136,-0.168 0.6136,-0.6004 0,-0.3485 -0.3496,0 -0.3496,-1.825 0,-0.8645 0.6836,-2.0649 0.8649,-1.8969 0.0843,0.168 0.1672,0.3476 0.1672,0.6008 0,0 -0.0829,0 -0.1672,0.0957 0.1672,0.5164 0.3468,0.9484 0.6011,1.2968 -0.1683,0.0832 -0.2543,0 -0.3496,0 0,0.4317 0.434,0.684 0.6121,1.0321 0.084,0.0836 -0.3484,0.1683 -0.5168,0.2644 0.086,0.0836 0.6856,0.6004 0.6008,0.6836 -0.084,0.1809 -0.1652,0.1809 -0.3465,0.3489 0.1813,0.1675 0.6961,0.264 0.7809,0.6968 0,0.0832 -0.2652,0.2524 -0.2652,0.336 0.0964,0 0.348,-0.0836 0.6117,-0.0836 0.5152,0.1793 0.9492,0 0.9492,0 0,0.0836 -0.084,0.2636 -0.084,0.4316 0.432,-0.0836 0.6844,0 0.7805,0.4317 0.0828,0 0.1676,-0.0836 0.2519,-0.1668 0.5164,-0.0848 1.0457,-0.4329 1.3817,-0.8657 0.4308,0.3485 1.0429,0.3485 1.5597,0.3485 0.2637,0.0843 0.3481,0 0.4325,0 -0.4325,-0.4317 0.5152,-0.5285 0.9476,-0.2637 0.5172,-0.6008 0.4328,-1.0328 0,-1.5617 0.2641,-0.1684 0.5172,-0.684 0.6121,-0.6 0.6856,0.7797 1.8973,1.0324 1.7321,1.5609 -0.1813,0.516 -0.5309,0.516 -1.0465,0.516 0.0844,0.3485 0.6105,0.3485 1.2117,0.3485 0,0.2523 0,0.4324 0,0.6004 0.9492,-0.168 1.382,-1.1289 1.8973,-1.2969 0.6121,-0.0844 1.2132,0.2648 1.6457,0.6008 0,0 0,0 0.0843,0 -0.0843,-1.0328 1.0446,-0.2528 1.3926,-0.336 0.0828,-0.9613 -1.6441,-1.2972 -1.7304,-1.7293 -0.179,-0.4324 0.0863,-0.5293 0.1691,-0.6961 -0.0828,-0.0843 -0.6961,-0.0843 -0.6012,-0.2644 0.2531,-0.5164 1.0336,-0.2528 1.1184,0 0.2637,0.5281 -0.252,0.6961 -0.1692,0.8644 0.0844,0 0.3485,-0.1683 0.5172,0 0,0.1797 -0.0843,0.2633 -0.0843,0.3485 0.348,-0.0852 0.6855,-0.3485 1.2972,-0.2524 0.1656,0.1672 0,0.3356 0.0844,0.5153 0.348,-0.0832 0.598,-0.4317 0.9465,-0.5153 0.2664,0 0.1808,0.3356 0.0859,0.768 0.3465,0.0965 0.6961,-0.9488 1.1289,-1.1164 0.1668,0 0.3481,0.2523 0.3481,0.432 0.0824,0 0.0824,-0.0836 0.1672,-0.0836 0.5148,-2.2574 1.2132,-0.1808 1.6453,-0.5293 l -0.084,-0.0832 c -0.1797,-0.2523 -0.1797,-0.5164 -0.1797,-0.7804 0.348,-1.2961 -1.0336,-1.6332 -0.9492,-1.7289 0.0824,-2.9297 -2.9418,-2.9297 -4.4906,-2.5938 0.348,-1.032 1.6441,-1.116 1.6441,-1.9805 0.0855,-0.2644 0.1687,-1.0449 0.5148,-1.2976 0.35,-0.2637 1.1184,0.1687 1.4664,0.4336 0.6961,0 0.7809,-0.5168 0.8653,-0.6133 0.6965,-0.084 1.1289,0.3484 1.7285,0.5281 0.2652,-0.1797 -0.3481,-0.7804 -0.0828,-0.6965 0.0828,0 0.1687,0.0844 0.2637,0 0.0843,-0.3484 -0.2637,-0.6961 -0.1809,-0.864 0.0859,-0.0848 0.2652,-0.0848 0.3469,-0.168 0,-0.1797 -0.261,-0.0957 -0.4297,-0.4316 0.1687,-0.1817 0.5152,-0.0965 0.6961,-0.0965 -0.1809,-0.3364 -0.7824,-0.7688 -0.866,-0.8645 0,-0.084 0.3386,-0.084 0.3386,-0.084 0,-0.2519 -0.434,-0.3476 -0.5172,-0.5168 0,-0.0835 0.1786,-0.1675 0.1786,-0.2644 -0.1786,-0.1668 -0.8625,-0.4317 -0.695,-0.5164 0.0825,-0.1684 0.3481,-0.2524 0.5164,-0.2524 -0.6007,-0.5269 -0.9492,-0.6121 -1.4664,-0.6121 -0.0824,-0.1679 -0.0824,-0.4324 -0.348,-0.5996 -0.0824,-0.0847 -0.4305,-0.3484 -0.6012,-0.2644 0.0848,0.4316 -0.0949,1.0449 -0.5277,0.9492 -0.084,0 -0.084,-0.0852 -0.084,-0.1692 0.2652,-0.5156 -0.0844,-1.1281 -0.8621,-1.0324 -0.3496,-0.3484 -1.382,-0.3484 -1.8984,0.1684 0,0.084 0,0.084 0,0.168 0.348,0 0.6855,0.0957 1.032,0.2644 0,0.0832 0,0.2637 -0.0844,0.3477 -0.5152,0 -0.9476,-0.1805 -1.3805,-0.4317 -0.0828,0 0,0 -0.0828,0.084 0,0.6008 0.4313,1.2969 0.8637,1.3801 0.2527,0.4324 0.3375,0.3496 0.3375,0.4324 -0.2531,0.2649 -0.6855,0.3484 -1.034,0.2649 -0.0844,0 -0.2637,-0.084 -0.2637,0.0835 0.4325,0.8657 1.0446,0.9485 1.6442,0.6965 0.1808,0.1692 0.4308,0.336 0.6121,0.252 0.3355,-0.0828 0.3355,-0.6004 0.6008,-0.7793 0.3496,-0.0852 0.7808,0.4316 0.7808,0.7793 0,0.6965 -1.2129,0.7804 -1.8129,0.6965 -0.5273,-0.0832 -1.1285,0 -1.5613,0.3484 -0.348,0.252 -0.6961,0.5156 -1.1285,0.8645 0,0.0836 0,0 -0.0848,-0.0957 0,-0.2532 -0.2511,-0.6008 0.0848,-0.9485 0.2637,-0.2519 0.6961,-0.4336 0.7805,-0.7812 0,-0.252 -0.0844,-0.4317 -0.2535,-0.5996 -0.179,-0.2637 -0.6118,-0.3489 -0.6118,-0.6973 0,-0.4317 0.0848,-0.5996 0.4328,-1.0332 -0.348,-0.084 -0.8632,0.0848 -1.2132,0.1687 -0.084,-0.0839 -0.334,-0.5164 -0.4325,-0.7683 -0.2519,-0.0965 -0.4296,0.6844 -0.5156,0.5156 -0.0844,0 -0.2527,-0.4316 -0.2527,-0.5156 -0.1797,-0.1805 -0.4313,0.5156 -0.4313,0.6844 -0.2652,-0.1688 -0.348,-0.5165 -0.348,-0.7809 -0.2637,0.0965 -0.3485,0.3484 -0.5184,0.5293 -0.1781,-0.3488 -0.5261,-0.4328 -0.959,-0.3488 -0.0836,0 0.1813,0.3488 0.0969,0.4316 0,0.084 0,0 -0.0969,0 -0.1668,-0.2637 -1.2003,-0.2637 -1.2003,0 0.2511,0.1688 0.5152,0.3484 0.4324,0.6855 0,0.1797 -0.0965,0.0958 -0.1813,0.0958 -0.3465,-0.1805 -0.5148,-0.6125 -0.8617,-0.8641 -0.2547,-0.1809 -0.6012,-0.0957 -0.8664,0.1668 -0.4313,0 -0.8648,0 -1.2977,-0.3477 0,0 -0.0828,0 -0.0828,0.0852 0.1688,0.864 0.4325,1.0437 0.9492,1.2117 0,0.1809 0,0.3484 -0.1683,0.4324 -0.3484,0.2641 -0.6981,0.1809 -0.9481,0 -0.2656,0.2641 0.336,1.3813 1.1164,0.9485 0.0829,0 0.0829,0.1804 0.1797,0.1804 -0.1797,0.516 -0.6132,0.516 -0.8652,0.3489 -0.0949,0.5996 0.7684,1.2004 1.2977,0.8632 0.0843,0.084 0.25,0.084 0.4308,0.1692 0.336,0 0.4324,-0.4328 0.684,-0.6008 0.1813,-0.0957 0.6137,-0.1797 0.8652,-0.4316 0.2637,-0.4329 0.4328,-0.4329 0.9493,-0.5293 0.348,0 0.696,0 1.0445,0.0964 0.5996,0.1684 0.5996,0.9477 0.0828,0.9477 -0.6012,0.0848 -1.1273,-0.0832 -1.6438,0 -0.8656,0.2527 -1.0324,0.5176 -1.0324,1.4656 -0.6949,-0.2519 -2.4261,-0.78 -2.6781,-0.8652 -0.1809,-0.252 -0.5273,-0.3477 -0.7789,-0.4316 -0.1813,-0.084 0.2516,-0.6004 0.348,-0.6004 0,-0.1797 -1.3937,-0.7793 -1.2148,-0.8645 0.0848,-0.084 0.1691,-0.084 0.1691,-0.084 0.084,-0.1797 -0.4312,-0.1797 -0.5172,-0.2636 0,-0.0848 0.1692,-0.168 0.2653,-0.168 -0.2653,-0.2649 -0.6965,-0.1809 -0.9613,-0.4324 -0.2516,-0.0969 -0.5153,-0.1809 -0.7688,-0.2637 -0.0969,-0.0852 0.0844,-0.2649 0.0844,-0.3496 -1.3817,-0.432 -1.7285,0.2644 -2.0781,0.1805 -0.1657,0 -0.3465,-0.2637 -0.4309,-0.3489 0,-0.6109 -0.4309,-1.4761 -1.0324,-1.3804 -0.1809,0.0847 0.1676,0.2519 0,0.6843 0,0 0,0 -0.1809,0 -0.2512,0.0852 -0.1687,-0.864 -0.7793,-0.5996 -0.0855,0 -0.1687,0.084 -0.2527,0 -0.6949,-0.2644 -1.0445,-0.5168 -1.8129,0.1672 1.2957,0.3484 1.5488,1.5613 -0.3481,1.0445 0.0844,0.7688 0.5165,1.0332 0.9477,1.0332 l 0,0 z m 12.5363,9.7739 0.0832,0.0828 c 0.4328,-0.9473 1.4754,-1.0449 2.4262,-0.8633 1.7285,0.252 4.0582,1.2129 5.534,1.2129 0.5148,0 1.7281,-0.2637 1.7281,-1.0449 0,-0.5164 -0.1773,-0.7813 -0.5277,-1.1172 -0.5164,-0.3477 -1.8125,-0.4324 -2.3281,-0.4324 -0.4321,0 -1.7297,0 -1.9934,0.5164 -0.3359,0.1691 -0.6012,0.2519 -1.0309,0.2519 -1.2148,0 -2.5953,-0.6836 -3.6289,-0.6836 -0.1793,0 -0.348,1.5489 -0.2625,2.0774 l 0,0 z m 2.6766,2.1609 c 0.5184,-0.348 0.8652,-0.9605 1.4769,-1.2969 0,-0.0957 -1.2972,-0.5281 -1.825,-0.5281 -0.948,0 -1.1164,0.4324 -1.1164,0.8645 -0.0832,0.5281 0.8649,1.2968 1.4645,0.9605 l 0,0"
         style="fill:#a89921;fill-opacity:1;fill-rule:evenodd;stroke:none"
         id="path178"
         inkscape:connector-curvature="0" />
      <path
         d="m 31.107,31.6191 c -0.0828,-0.0839 -0.1777,-0.4328 -0.1777,-0.4328 -0.3375,0.1809 -0.5172,0.1809 -0.8652,0.0852 0.0953,0.1789 0.6961,0.6113 1.0429,0.3476 l 0,0 z m -0.5152,-1.55 c 0,-0.1796 0.0844,-0.3484 0.1684,-0.5269 0.0843,-0.0852 -0.5164,-0.0852 -0.6961,-0.1692 0,0.1692 0.264,0.6961 0.5277,0.6961 l 0,0 z m 0.7687,-1.3921 c 0.0961,-0.084 0.1805,-0.168 0.2649,-0.252 -0.1688,-0.1801 -0.8652,-0.1801 -0.9492,0.084 0.2531,0 0.5152,0 0.6843,0.168 l 0,0 z m -9.9421,1.7292 c 0,-0.1679 0,-0.1679 0.0968,-0.3371 l -0.0968,0 c -0.4325,0 -0.5164,-0.0957 -0.7684,-0.1796 0,0.1796 0.5172,0.6125 0.7684,0.5167 l 0,0 z m -0.1668,1.4766 c 0.0839,0 -0.0844,0 0,-0.3476 -0.0844,-0.0848 -0.0844,0 -0.1692,0 -0.2636,0.0839 -0.4324,0.0839 -0.6133,0 0.086,0.2636 0.5168,0.4328 0.7825,0.3476 l 0,0 z m 0.5152,1.2961 C 21.682,33.0957 21.682,32.916 21.598,32.8312 c 0,-0.0839 -0.0828,0 -0.0828,0 C 21.3355,32.916 21.1672,33 20.9859,33 c 0.1813,0.2637 0.6121,0.4316 0.7809,0.1789 l 0,0 z m -2.8453,7.95 c 0,0.0832 0.0828,0 0.0828,0 -0.0828,-0.3484 -0.1789,-0.6855 -0.1789,-1.0332 l 0.0961,0 c 0.1676,0.252 0.3359,1.1164 0.4308,0.9492 0.3375,-0.6972 -0.4308,-1.5625 -0.6101,-1.4668 -0.1692,0 -0.3496,1.0332 0.1793,1.5508 l 0,0 z m -4.8512,3.3731 0,0 c -0.1683,0 -0.3359,-0.168 -0.5168,0 -0.0828,0.1675 -0.1687,0.264 -0.348,0.3476 0.348,0.0844 0.6965,0 0.8648,-0.3476 l 0,0 z m -2.2437,-0.3489 c 0.2625,0.0844 0.6949,-0.0832 0.7789,-0.1683 -0.084,-0.0832 -0.1668,-0.3481 -0.2637,-0.3481 -0.2527,0.5164 -0.6856,0.4332 -0.5152,0.5164 l 0,0 z m -0.3496,-1.116 c 0.0968,0 0.0968,-0.2637 0.5273,-0.348 0,-0.0844 -0.0949,-0.2641 -0.0949,-0.3485 -0.2532,-0.0844 -0.5168,0.5996 -0.4324,0.6965 l 0,0 z m 0.2652,-10.5547 c 0,-0.0828 -0.086,-0.1672 -0.1684,-0.3476 0,-0.084 -0.2656,0.0964 -0.6136,0 0.1808,0.3476 0.5168,0.3476 0.782,0.3476 l 0,0 z m 0.0844,-3.0254 c 0.1777,0 0.3468,-0.4324 0.2625,-0.4324 -0.0848,-0.1672 -0.6965,-0.1672 -0.8633,-0.0832 0.2512,0.0832 0.4304,0.2637 0.6008,0.5156 l 0,0 z m -0.434,1.3809 c 0,-0.084 0,-0.1668 0,-0.3359 -0.2516,0.0839 -0.3465,0.0839 -0.684,-0.0958 0.0828,0.3477 0.5996,0.5286 0.684,0.4317 l 0,0"
         style="fill:#00adef;fill-opacity:1;fill-rule:evenodd;stroke:none"
         id="path180"
         inkscape:connector-curvature="0" />
      <path
         d="m 31.107,31.6191 c -0.0828,-0.0839 -0.1777,-0.4328 -0.1777,-0.4328 -0.3375,0.1809 -0.5172,0.1809 -0.8652,0.0852 0.0953,0.1789 0.6961,0.6113 1.0429,0.3476 l 0,0 z m -0.5152,-1.55 c 0,-0.1796 0.0844,-0.3484 0.1684,-0.5269 0.0843,-0.0852 -0.5164,-0.0852 -0.6961,-0.1692 0,0.1692 0.264,0.6961 0.5277,0.6961 l 0,0 z m 0.7687,-1.3921 c 0.0961,-0.084 0.1805,-0.168 0.2649,-0.252 -0.1688,-0.1801 -0.8652,-0.1801 -0.9492,0.084 0.2531,0 0.5152,0 0.6843,0.168 l 0,0 z m -9.9421,1.7292 c 0,-0.1679 0,-0.1679 0.0968,-0.3371 l -0.0968,0 c -0.4325,0 -0.5164,-0.0957 -0.7684,-0.1796 0,0.1796 0.5172,0.6125 0.7684,0.5167 l 0,0 z m -0.1668,1.4766 c 0.0839,0 -0.0844,0 0,-0.3476 -0.0844,-0.0848 -0.0844,0 -0.1692,0 -0.2636,0.0839 -0.4324,0.0839 -0.6133,0 0.086,0.2636 0.5168,0.4328 0.7825,0.3476 l 0,0 z m 0.5152,1.2961 C 21.682,33.0957 21.682,32.916 21.598,32.8312 c 0,-0.0839 -0.0828,0 -0.0828,0 C 21.3355,32.916 21.1672,33 20.9859,33 c 0.1813,0.2637 0.6121,0.4316 0.7809,0.1789 l 0,0 z m -2.8453,7.95 c 0,0.0832 0.0828,0 0.0828,0 -0.0828,-0.3484 -0.1789,-0.6855 -0.1789,-1.0332 l 0.0961,0 c 0.1676,0.252 0.3359,1.1164 0.4308,0.9492 0.3375,-0.6972 -0.4308,-1.5625 -0.6101,-1.4668 -0.1692,0 -0.3496,1.0332 0.1793,1.5508 l 0,0 z m -4.8512,3.3731 0,0 c -0.1683,0 -0.3359,-0.168 -0.5168,0 -0.0828,0.1675 -0.1687,0.264 -0.348,0.3476 0.348,0.0844 0.6965,0 0.8648,-0.3476 l 0,0 z m -2.2437,-0.3489 c 0.2625,0.0844 0.6949,-0.0832 0.7789,-0.1683 -0.084,-0.0832 -0.1668,-0.3481 -0.2637,-0.3481 -0.2527,0.5164 -0.6856,0.4332 -0.5152,0.5164 l 0,0 z m -0.3496,-1.116 c 0.0968,0 0.0968,-0.2637 0.5273,-0.348 0,-0.0844 -0.0949,-0.2641 -0.0949,-0.3485 -0.2532,-0.0844 -0.5168,0.5996 -0.4324,0.6965 l 0,0 z m 0.2652,-10.5547 c 0,-0.0828 -0.086,-0.1672 -0.1684,-0.3476 0,-0.084 -0.2656,0.0964 -0.6136,0 0.1808,0.3476 0.5168,0.3476 0.782,0.3476 l 0,0 z m 0.0844,-3.0254 c 0.1777,0 0.3468,-0.4324 0.2625,-0.4324 -0.0848,-0.1672 -0.6965,-0.1672 -0.8633,-0.0832 0.2512,0.0832 0.4304,0.2637 0.6008,0.5156 l 0,0 z m -0.434,1.3809 c 0,-0.084 0,-0.1668 0,-0.3359 -0.2516,0.0839 -0.3465,0.0839 -0.684,-0.0958 0.0828,0.3477 0.5996,0.5286 0.684,0.4317 l 0,0 z"
         style="fill:none;stroke:#00adef;stroke-width:0.0529;stroke-linecap:butt;stroke-linejoin:miter;stroke-miterlimit:2.61310005;stroke-opacity:1;stroke-dasharray:none"
         id="path182"
         inkscape:connector-curvature="0" />
      <path
         d="m 22.1977,64.2168 0,-1.5606 0,1.5606"
         style="fill:#231f20;fill-opacity:1;fill-rule:evenodd;stroke:none"
         id="path184"
         inkscape:connector-curvature="0" />
      <path
         d="m 22.1977,62.2242 0,-3.6265 0,3.6265"
         style="fill:#231f20;fill-opacity:1;fill-rule:evenodd;stroke:none"
         id="path186"
         inkscape:connector-curvature="0" />
      <path
         d="m 23.4105,62.2242 0.0844,0 0,-3.6265 -0.0844,0 0,3.6265"
         style="fill:#231f20;fill-opacity:1;fill-rule:evenodd;stroke:none"
         id="path188"
         inkscape:connector-curvature="0" />
      <path
         d="m 12.4387,57.4691 0,11.2383 0.5996,0 0,-10.7219 c 3.1945,0 7.5168,0.6122 8.0441,0.6961 1.0324,0.0836 1.7285,-0.6128 1.8117,-0.6961 0.086,0.0833 0.6008,0.6961 1.2973,0.6961 2.5938,-0.2644 5.4402,-0.7796 8.5613,-0.6961 l 0,10.7219 0.686,0 0,-11.2383 -21,0 0,0"
         style="fill:#a89921;fill-opacity:1;fill-rule:evenodd;stroke:none"
         id="path190"
         inkscape:connector-curvature="0" />
      <path
         d="m 22.1977,68.7074 0,-3.8898 0,3.8898"
         style="fill:#231f20;fill-opacity:1;fill-rule:evenodd;stroke:none"
         id="path192"
         inkscape:connector-curvature="0" />
      <path
         d="m 23.4105,68.7074 0.0844,0 0,-3.9734 -0.0844,0 0,3.9734"
         style="fill:#231f20;fill-opacity:1;fill-rule:evenodd;stroke:none"
         id="path194"
         inkscape:connector-curvature="0" />
      <path
         d="m 31.7066,62.2242 c -0.3461,0.084 -0.5996,0 -0.9464,0.084 l 0,0 c 0.0843,0.0836 0.1691,0.348 0.0843,0.432 0,0.2641 -0.0843,0.3481 -0.1683,0.5164 -0.2641,0 -0.5168,0.0954 -0.7809,0 -0.0844,0 -0.0844,-0.1683 -0.1672,-0.2523 0,-0.2641 0,-0.5164 0.252,-0.6961 -0.0848,0 0,0 -0.0848,-0.084 -0.0844,0 -0.4324,0 -0.8648,0 -0.4328,0 -0.9481,0 -1.0325,0.084 0.3375,0.1797 0.3375,0.6961 0.3375,1.2117 0,0.5168 0,0.9492 -0.1699,1.1297 0,0 -0.0832,0 -0.0832,0.0844 0,0.0836 0.0832,0 0.0832,0 0.1699,0 0.6012,0 0.7821,0 0.0828,0 0.0828,0 0.1671,0 -0.0843,-0.0844 -0.1671,-0.0844 -0.2531,-0.2649 -0.0949,-0.1679 -0.0949,-0.5164 -0.0949,-0.9492 0,-0.4316 -0.0848,-1.032 0.1809,-1.2117 0.0828,0 0.0828,0 0.0828,0.0836 0.5168,0.2644 0.7804,1.393 1.0336,1.9094 -0.084,0.1679 -0.336,0.0843 -0.4325,0.0843 -0.0843,0 -0.1687,-0.0843 -0.2515,-0.0843 0,0.0843 0.0828,0.1679 0.1672,0.2515 0.1808,0.0969 0.2636,0.1813 0.4328,0.1813 0.1793,0.0836 0.5148,0 0.6117,-0.2649 0.2527,-0.2523 0.3375,-0.5164 0.5152,-0.864 0.1688,-0.4332 0.2535,-0.9489 0.7809,-1.2969 0,-0.084 -0.0953,-0.084 -0.1813,-0.084 l 0,0 z m -1.7265,1.2957 c 0.084,0.2649 0.1793,0.4328 0.2637,0.6969 0.0843,0 0.2511,-0.6117 0.348,-0.6969 -0.1797,0 -0.5277,0 -0.6117,0 l 0,0"
         style="fill:#231f20;fill-opacity:1;fill-rule:evenodd;stroke:none"
         id="path196"
         inkscape:connector-curvature="0" />
      <path
         d="m 27.8176,63.9527 c -0.0817,0 -0.0817,0.084 -0.1676,0.1672 -0.0824,0.1813 -0.1809,0.3492 -0.3496,0.4328 -0.1656,0 -0.2609,0.0969 -0.3469,0 0.086,-0.6843 -0.1683,-1.8965 0.2637,-2.2445 0,-0.1687 -0.1777,-0.084 -0.2637,-0.084 -0.2527,0 -0.5148,0 -0.7805,0 -0.0839,0.084 0.0965,0.1676 0.0965,0.2637 0.3344,0.5164 0.2516,1.2969 0.2516,1.9812 0,0.0836 -0.1672,0.0836 -0.2516,0 -0.2652,0 -0.348,-0.2523 -0.4304,-0.5164 -0.0969,0 -0.0969,0 -0.1813,0 0,0.2641 0,0.6969 0.0844,0.7813 0.5273,0 1.1269,0 1.7269,0 0.0985,0 0.2668,0.0836 0.3485,0 0.084,-0.0844 0.084,-0.3485 0,-0.4328 0.084,-0.0844 0.084,-0.2645 0,-0.3485 l 0,0"
         style="fill:#231f20;fill-opacity:1;fill-rule:evenodd;stroke:none"
         id="path198"
         inkscape:connector-curvature="0" />
      <path
         d="m 25.3082,64.5527 c -0.0832,0 -0.0832,-0.0836 -0.0832,-0.1672 -0.1684,-0.5171 -0.0844,-1.1289 -0.0844,-1.7293 0,-0.0839 0,-0.2644 0,-0.348 -0.084,-0.084 -0.1672,0 -0.1672,0 -0.6129,0.5156 -0.9613,1.2117 -1.4785,1.8117 -0.0844,0 -0.0844,0 -0.0844,-0.0832 0,-0.4316 0.0844,-0.8648 0.0844,-1.3805 0.0848,-0.1683 0.2641,-0.2644 0.2641,-0.348 -0.1793,-0.084 -0.4309,0 -0.6965,0 -0.0824,0 -0.1684,0 -0.1684,0 0.5164,0.2641 0.3497,1.4766 0.3497,1.993 0,0.0843 -0.1813,0.0843 -0.1813,0.0843 -0.2516,-0.0843 -0.4293,-0.2656 -0.4293,-0.5171 -0.0859,0 -0.0859,0 -0.0859,0 -0.0844,0.1683 -0.1688,0.3484 -0.2637,0.4328 -0.0859,0.0843 -0.1688,0.1679 -0.2516,0.1679 -0.2652,0 -0.5168,0 -0.7804,0 l 0,-0.6843 c 0.1668,-0.0961 0.3464,-0.0961 0.4304,0 0.0848,0.0836 0.1692,0.2519 0.2657,0.1679 0.0843,-0.0843 0.0843,-0.1679 0.0843,-0.264 l 0,-0.4321 c -0.0843,-0.0847 -0.1808,0.0954 -0.2652,0.0954 -0.0848,0.0843 -0.1688,0.1679 -0.2516,0.1679 -0.0968,0 -0.2636,0.0852 -0.2636,0 l 0,-0.8637 c 0.0839,-0.2644 0.5152,-0.2644 0.6961,-0.1683 0.1671,0 0.3359,0.0844 0.4308,0.1683 0.0844,0.1676 0.0844,0.3481 0.1688,0.5157 0.0859,0 0.0859,0 0.0859,0 l 0,-0.684 c 0,-0.0961 -0.0859,-0.1797 -0.1703,-0.1797 -0.3481,0 -0.6961,0 -1.0445,0 -0.336,0 -0.5996,0 -0.8633,0 0,0 -0.086,0 0,0 0.3469,0.2641 0.2637,1.8117 0.1793,2.0773 -0.0844,0.0836 -0.1793,0.2641 -0.2653,0.2641 0,0.0844 0.086,0.0844 0.1809,0.0844 0.4324,0 1.2012,0 1.7285,0 0.0844,0 0.1688,-0.0844 0.1688,-0.1813 0.0859,-0.0836 0,-0.1672 0.0859,-0.1672 0.0813,0 0.1777,0.1672 0.2609,0.1672 0.1684,0.1813 0.3497,0.1813 0.5164,0.1813 0.7809,-0.2649 1.0336,-1.382 1.4665,-1.6457 l 0,0 c 0,0.348 0,0.7801 0,1.1285 -0.0844,0.1687 -0.2516,0.3359 -0.4329,0.5172 l 0.0969,0 c 0.2516,0 0.684,0 0.8621,0 0.0856,0 0.0856,0 0.0856,0 -0.0856,-0.0844 -0.0856,-0.0844 -0.1805,-0.1813 l 0,0"
         style="fill:#231f20;fill-opacity:1;fill-rule:evenodd;stroke:none"
         id="path200"
         inkscape:connector-curvature="0" />
      <path
         d="m 20.0383,64.5527 c -0.1672,-0.2515 -0.1672,-0.6843 -0.1672,-1.0328 0,-0.4316 -0.0859,-0.8637 0.2516,-1.1281 0,-0.0836 0,-0.0836 0,-0.0836 -0.2516,0 -0.684,0 -0.9493,0 0,0 0,0 0,0.0836 0.084,0.0961 0.1789,0.1805 0.1789,0.2644 0.0864,0.1676 0.0864,1.2965 0.0864,1.4637 0,0.1813 0,0.3492 -0.1813,0.4328 -0.084,0 -0.084,0 -0.1683,0.0969 0.0843,0 0.0843,0.0844 0.0843,0.0844 0.3481,0 0.6977,0 0.9493,0 0.0964,-0.0844 0,-0.0844 -0.0844,-0.1813 l 0,0"
         style="fill:#231f20;fill-opacity:1;fill-rule:evenodd;stroke:none"
         id="path202"
         inkscape:connector-curvature="0" />
      <path
         d="m 18.225,62.3918 c -0.434,-0.1676 -1.0336,-0.0836 -1.4645,0.1805 -0.3496,0.348 -0.4308,0.864 -0.3496,1.3804 0.084,0.2641 0.3496,0.6 0.6836,0.6969 0.3504,0.0844 0.6965,0.168 1.0465,0.0844 0.084,0 0.2516,-0.0844 0.2516,-0.0844 0.0969,0 0.1804,0.0844 0.2636,0.0844 0.086,0 0.086,0 0.086,0 0.0832,-0.3485 0,-0.5172 0,-0.7813 0,-0.0843 0,-0.1679 -0.086,-0.1679 -0.0832,0 -0.0832,0.1679 -0.1667,0.2519 -0.2645,0.3488 -0.3485,0.516 -0.6985,0.6129 -0.3461,0 -0.5996,-0.1805 -0.7789,-0.4328 -0.1676,-0.432 -0.1676,-1.0449 0.1793,-1.4766 0.1691,-0.1679 0.5172,-0.2523 0.7688,-0.1679 0.2648,0 0.5293,0.2515 0.6128,0.516 l 0.0832,0 c 0.086,0 0.1692,-0.084 0.1692,-0.168 -0.0832,-0.2641 -0.3359,-0.4324 -0.6004,-0.5285 l 0,0"
         style="fill:#231f20;fill-opacity:1;fill-rule:evenodd;stroke:none"
         id="path204"
         inkscape:connector-curvature="0" />
      <path
         d="m 16.2328,63.8684 -0.0844,0 c -0.0859,0.2515 -0.2543,0.6007 -0.5168,0.7812 -0.0843,0 -0.2656,0 -0.4339,-0.1805 -0.0817,-0.1679 -0.0817,-0.3492 0,-0.5164 0.3496,-0.264 1.2132,-0.5164 1.0351,-1.1289 0,-0.2515 -0.2527,-0.5156 -0.5183,-0.5996 -0.3485,-0.0847 -0.779,0.084 -1.0321,0.2637 0,0.0844 -0.0844,0 -0.0844,0 -0.1796,-0.0961 -0.2621,-0.2637 -0.4308,-0.3484 0,0 0,0 -0.0969,0.0847 0.1797,0.2637 0.1797,0.5996 0.3481,0.9477 0.0843,0.0847 0.0843,0 0.0843,-0.0836 0.0953,-0.3481 0.4328,-0.6004 0.695,-0.6004 0.4339,-0.0961 0.6011,0.2523 0.4339,0.6004 -0.1671,0.2637 -0.6961,0.348 -0.8648,0.7801 -0.0844,0.1683 -0.0844,0.4328 0,0.6007 0.2652,0.4329 0.8648,0.3485 1.1273,0.1805 0.1684,0 0.2543,0.168 0.3387,0.0844 0,-0.0844 0.0969,-0.7813 0,-0.8656 l 0,0"
         style="fill:#231f20;fill-opacity:1;fill-rule:evenodd;stroke:none"
         id="path206"
         inkscape:connector-curvature="0" />
      <path
         d="m 11.477,56.4363 0,12.2711 0.7804,0 0,-11.5019 21.3586,0 0,11.5019 0.7703,0 0,-12.2711 -22.9093,0 0,0"
         style="fill:#f03c1f;fill-opacity:1;fill-rule:evenodd;stroke:none"
         id="path208"
         inkscape:connector-curvature="0" />
      <path
         d="m 11.3926,60.9273 0,-2.5101 -2.24572,1.2976 2.24572,1.2125 0,0"
         style="fill:#a89921;fill-opacity:1;fill-rule:evenodd;stroke:none"
         id="path210"
         inkscape:connector-curvature="0" />
      <path
         d="m 11.3926,67.5781 0,-2.5918 -2.24572,1.2965 2.24572,1.2953 0,0"
         style="fill:#a89921;fill-opacity:1;fill-rule:evenodd;stroke:none"
         id="path212"
         inkscape:connector-curvature="0" />
      <path
         d="m 10.6117,60.1465 c 0.2653,0 0.4344,-0.1668 0.4344,-0.4317 0,-0.2523 -0.1691,-0.5171 -0.4344,-0.5171 -0.2512,0 -0.5164,0.2648 -0.5164,0.5171 0,0.2649 0.2652,0.4317 0.5164,0.4317 l 0,0"
         style="fill:#231f20;fill-opacity:1;fill-rule:evenodd;stroke:none"
         id="path214"
         inkscape:connector-curvature="0" />
      <path
         d="m 10.6117,60.1465 c 0.1797,0 0.3485,-0.2516 0.3485,-0.4317 0,-0.2523 -0.1688,-0.4328 -0.3485,-0.4328 -0.2512,0 -0.4308,0.1805 -0.4308,0.4328 0,0.1801 0.1796,0.4317 0.4308,0.4317 l 0,0"
         style="fill:#fff200;fill-opacity:1;fill-rule:evenodd;stroke:none"
         id="path216"
         inkscape:connector-curvature="0" />
      <path
         d="m 10.6117,66.7148 c 0.2653,0 0.4344,-0.1687 0.4344,-0.432 0,-0.2531 -0.1691,-0.5168 -0.4344,-0.5168 -0.2512,0 -0.5164,0.2637 -0.5164,0.5168 0,0.2633 0.2652,0.432 0.5164,0.432 l 0,0"
         style="fill:#231f20;fill-opacity:1;fill-rule:evenodd;stroke:none"
         id="path218"
         inkscape:connector-curvature="0" />
      <path
         d="m 10.6117,66.7148 c 0.1797,0 0.3485,-0.1687 0.3485,-0.432 0,-0.2531 -0.1688,-0.4332 -0.3485,-0.4332 -0.2512,0 -0.4308,0.1801 -0.4308,0.4332 0,0.2633 0.1796,0.432 0.4308,0.432 l 0,0"
         style="fill:#fff200;fill-opacity:1;fill-rule:evenodd;stroke:none"
         id="path220"
         inkscape:connector-curvature="0" />
      <path
         d="m 23.6762,45.102 c 0,0.0968 -0.0965,0.18 -0.1813,0.2648 -0.4324,-0.2648 -1.3801,-0.168 -0.9476,0.2637 -0.0844,0 -0.1688,0.0843 -0.4325,0 -0.5168,0 -1.1289,0 -1.5597,-0.3485 -0.336,0.4328 -0.8653,0.7809 -1.3817,0.8657 -0.0843,0.0832 -0.1691,0.1668 -0.2519,0.1668 -0.0961,-0.4317 -0.3485,-0.5153 -0.7805,-0.4317 0,-0.168 0.084,-0.348 0.084,-0.4316 0,0 -0.434,0.1793 -0.9492,0 -0.2637,0 -0.5153,0.0836 -0.6117,0.0836 0,-0.0836 0.2652,-0.2528 0.2652,-0.336 -0.0848,-0.4328 -0.5996,-0.5293 -0.7809,-0.6968 0.1813,-0.168 0.2625,-0.168 0.3465,-0.3489 0.0848,-0.0832 -0.5148,-0.6 -0.6008,-0.6836 0.1684,-0.0961 0.6008,-0.1808 0.5168,-0.2644 -0.1781,-0.3481 -0.6121,-0.6004 -0.6121,-1.0321 0.0953,0 0.1813,0.0832 0.3496,0 -0.2543,-0.3484 -0.4339,-0.7804 -0.6011,-1.2968 0.0843,-0.0957 0.1672,-0.0957 0.1672,-0.0957 0,-0.2532 -0.0829,-0.4328 -0.1672,-0.6008 -0.1813,-0.168 -0.8649,1.0324 -0.8649,1.8969 0,1.825 0.3496,1.4765 0.3496,1.825 0,0.4324 -0.434,0.3359 -0.6136,0.6004 -0.3481,0.6 -1.2957,0.78 -1.7297,0.3476 0.2656,-0.0836 0.434,-0.0836 0.6136,-0.4316 0.0825,-0.1805 -0.0968,-0.1805 -0.0968,-0.3481 -0.1672,0 -0.2512,-0.0851 -0.336,0 -0.348,0.2641 -1.1273,0.5996 -1.6437,0 0.4304,-0.0851 0.8633,-0.348 0.9476,-0.8648 -0.1691,-0.516 -0.7808,0.2644 -0.7808,0.2644 -0.2516,-0.3484 -0.2516,-1.2133 0.3496,-1.3929 0.2621,0.0964 0.0844,-0.252 0.3469,-0.3364 0.1683,-0.0957 0.4324,0 0.5996,0 0.1808,-0.0957 0.1808,-0.18 0,-0.3476 -0.1672,-0.084 -0.3469,0 -0.5153,0 0,-0.084 0,-0.2637 0,-0.3477 0.1684,-0.2644 0.4321,-0.4336 0.7809,-0.4336 0.1684,0 0.1684,-0.2636 0.084,-0.3476 -0.5168,-0.3496 -0.9492,-0.4325 -1.2117,-1.0332 0.2625,0.084 0.5152,0.084 0.5152,-0.084 0,-0.2649 -0.1684,-0.3477 -0.3375,-0.5274 0,0 -0.0949,0 -0.0949,-0.0847 0.1797,-0.084 0.4324,0.0847 0.5293,-0.084 0.1668,-0.1684 -0.6121,-0.6008 -0.5293,-0.9484 0.348,0.0839 0.7793,0.1691 0.8648,-0.2645 0,-0.252 -0.1687,-0.5156 -0.4324,-0.6848 0.3469,0 0.6965,0.1692 0.7809,0 0.0828,-0.0957 -0.5172,-0.4316 -0.5172,-0.7793 0.264,0.0828 0.4328,0.168 0.6968,0.0828 0.1684,-0.3472 -0.6136,-0.5996 -0.6968,-0.5996 0.264,-0.4324 1.3804,-0.3472 1.8972,-0.0964 0.1797,-0.7676 1.1289,-0.7676 1.1289,-0.8641 -0.2656,-0.2523 -0.5156,-0.7688 -0.4339,-1.0324 0.0859,-0.7813 -0.3465,-1.4649 -1.2118,-1.4649 -0.5152,0 -1.0316,0.084 -1.2117,0.6008 -0.1687,0.5164 -0.5168,0.5164 -0.8648,0.2645 -0.5168,0.2519 -1.2008,-0.1817 -1.3801,-0.6961 0.3477,0.0828 1.3801,-0.2649 0.7789,-0.8657 -0.4312,0 -0.8633,-0.2644 -0.9477,-1.0332 1.8969,0.5168 1.6438,-0.6961 0.3481,-1.0445 0.7684,-0.684 1.118,-0.4316 1.8129,-0.1672 0.084,0.084 0.1672,0 0.2527,0 0.6106,-0.2644 0.5281,0.6848 0.7793,0.5996 0.1809,0 0.1809,0 0.1809,0 0.1676,-0.4324 -0.1809,-0.5996 0,-0.6843 0.6015,-0.0957 1.0324,0.7695 1.0324,1.3804 0.0844,0.0852 0.2652,0.3489 0.4309,0.3489 0.3496,0.0839 0.6964,-0.6125 2.0781,-0.1805 0,0.0847 -0.1813,0.2644 -0.0844,0.3496 0.2535,0.0828 0.5172,0.1668 0.7688,0.2637 0.2648,0.2515 0.696,0.1675 0.9613,0.4324 -0.0961,0 -0.2653,0.0832 -0.2653,0.168 0.086,0.0839 0.6012,0.0839 0.5172,0.2636 0,0 -0.0843,0 -0.1691,0.084 -0.1789,0.0852 1.2148,0.6848 1.2148,0.8645 -0.0964,0 -0.5293,0.5164 -0.348,0.6004 0.2516,0.0839 0.598,0.1796 0.7789,0.4316 0.252,0.0852 1.9832,0.6133 2.6781,0.8652 0,-0.6007 0.0824,-0.948 0.3481,-1.1172 l 0,1.8977 c -0.1813,-0.0844 -0.3481,-0.1684 -0.6137,-0.2648 0.1813,0.2648 0.4324,0.6132 0.6137,0.8652 -0.6961,-0.3359 -1.1289,-0.7688 -2.0782,-1.2012 -0.0828,0 -0.1796,0 -0.1796,0.0852 0.0968,0.2508 0.2636,0.3472 0.4328,0.864 -0.0844,0.0828 -0.1692,-0.0839 -0.2532,-0.0839 -0.948,-0.6973 -1.4753,-1.2969 -2.3406,-1.129 0,-0.1679 0.3481,-0.5167 0.8653,-0.696 -0.2516,-0.2532 -1.1184,-0.168 -1.5497,0.0957 -0.0835,-0.4329 0.6844,-0.6965 0.8657,-0.7813 -0.4344,-0.3477 -1.2977,0 -1.7301,0.1688 -0.0848,0 0,-0.084 0,-0.084 0.2516,-0.5164 1.2957,-0.5996 1.7301,-0.5996 -0.6965,-0.3489 -1.3821,-0.5293 -2.1629,-0.0965 -0.1813,-0.2524 0.6844,-0.7688 0.8652,-0.8645 0,-0.1679 -0.9496,-0.084 -1.5613,0.4317 -0.0848,-0.252 0.6961,-0.7676 0.7808,-0.8633 -0.4312,-0.4336 -1.4664,0.1789 -1.3804,0.0957 0,0 -0.086,0.0832 -0.086,0 0.086,-0.3484 0.5168,-0.5293 0.8664,-0.6961 -0.698,-0.3496 -1.2132,0.0828 -1.4769,0.3477 -0.1676,0 -0.7809,-0.6126 -0.7809,-0.6973 -0.0843,-0.1684 0,-0.3481 -0.0843,-0.6008 -0.0825,-0.1785 -0.2512,-0.6121 -0.3481,-0.5156 -0.1683,0 0,0.5156 -0.1683,0.5996 -0.7793,0.3484 -0.6965,-0.4317 -1.0325,-0.6961 -0.348,-0.1672 -0.8652,0.4336 -0.8652,0.6121 0,0.084 0.0848,0.3484 0.3375,0.084 0.2637,0 0.2637,0.1687 0.2637,0.2644 0,0.2524 -0.084,0.4329 -0.4321,0.3371 -0.0843,0 -0.0843,-0.2531 -0.3468,-0.1679 -0.2528,0.2637 -0.2528,0.864 -0.0844,0.948 0.2621,0.0852 0.3469,-0.2515 0.5996,-0.1675 0.1797,0.0835 0.1797,0.6003 0,0.6843 -0.1684,0.0957 -0.4324,-0.2527 -0.5996,0 0.0844,0.3477 0.3469,0.7793 0.5152,0.7793 0.2641,0 0.2641,-0.5996 0.6969,-0.7793 0.5992,-0.4316 1.3816,-0.3359 1.8125,-0.1679 1.5629,0.696 0.8648,1.8125 1.3816,2.0761 1.1274,0.5164 0.6121,1.0332 1.043,1.2981 0.0844,-0.0852 0.0844,-0.5168 0.3391,-0.6133 0.0933,0.5281 0.1781,0.8641 0.6945,0.6961 0.1676,-0.2637 0.348,-0.5164 0.6004,-0.6961 0.0961,0 0.0961,0.6133 0.0961,0.8641 0.4308,-0.336 1.1168,-0.336 1.032,-0.168 -0.0824,0.084 -0.432,0.5168 -0.432,0.6973 0.432,-0.2645 1.1285,-0.0965 1.0336,0.0839 -0.086,0.0828 -0.1688,0.168 -0.1688,0.252 0.0828,0.1797 0.4325,0.1797 0.5996,0.1797 0,0.3476 -0.3359,0.7804 0,1.2129 0.2657,-0.1805 0.3496,-0.3477 0.6961,-0.3477 0,0.252 -0.084,0.6008 0.0848,0.8645 0.7805,0 1.3816,0 1.9094,0.084 l 0,3.4578 c -0.0965,0 -0.2657,0.0836 -0.3481,0.4316 -0.0843,0.348 -0.434,0.6008 -0.7808,0.6965 0.0859,0.1687 0,0.3355 0,0.5164 0.2636,0.084 0.5152,0.084 0.6965,-0.084 0.2511,-0.1801 0.0843,-0.6121 0.4324,-1.2969 l 0,1.8965 c -0.0965,0.0852 -0.0965,0.1684 -0.1813,0.1684 0.0848,0.0965 0.1813,0.1797 0.1813,0.2648 l 0,1.0321 z m 0,-12.2708 C 23.4949,32.916 23.1484,33 23.0625,33.0957 c -0.2516,0.168 -0.348,0.6008 -0.684,0.6008 -0.1808,-0.0852 -0.3465,-0.0852 -0.4308,-0.1692 -0.5293,0.3372 -1.3926,-0.2636 -1.2977,-0.8632 0.252,0.1671 0.6855,0.1671 0.8652,-0.3489 -0.0968,0 -0.0968,-0.1804 -0.1797,-0.1804 -0.7804,0.4328 -1.382,-0.6844 -1.1164,-0.9485 0.25,0.1809 0.5997,0.2641 0.9481,0 0.1683,-0.084 0.1683,-0.2515 0.1683,-0.4324 -0.5167,-0.168 -0.7804,-0.3477 -0.9492,-1.2117 0,-0.0852 0.0828,-0.0852 0.0828,-0.0852 0.4329,0.3477 0.8664,0.3477 1.2977,0.3477 0.2652,-0.2625 0.6117,-0.3477 0.8664,-0.1668 0.3469,0.2516 0.5152,0.6836 0.8617,0.8641 0.0848,0 0.1813,0.0839 0.1813,-0.0958 0.0828,-0.3371 -0.1813,-0.5167 -0.4324,-0.6855 0,-0.0828 0.1667,-0.1785 0.4324,-0.1785 l 0,1.2957 c -0.3481,-0.084 -0.7821,-0.3359 -1.043,-0.7688 -0.0859,-0.0957 -0.2547,-0.0957 -0.4355,-0.0957 -0.3465,0.0957 -0.6825,0.6977 -0.3465,0.9614 0.1808,0.084 0.2636,-0.1809 0.5273,-0.0969 0.1688,0.0969 0.1688,0.6973 -0.2637,0.6125 -0.2636,0 -0.348,-0.3481 -0.5168,-0.0832 -0.0828,0.2519 0,0.948 0.434,0.864 0.0828,-0.1804 0.1657,-0.2632 0.2516,-0.2632 0.4309,0 0.3496,0.3472 0.2637,0.5996 -0.1688,0.0965 -0.5153,-0.0852 -0.5996,0.0965 -0.1809,0.2519 0.1671,0.6836 0.4308,0.6836 0.336,0 0.2547,-0.4317 0.6016,-0.5165 0.1683,-0.0839 0.5148,-0.0839 0.6961,-0.2636 l 0,0.2636 z m -11.2375,9.8579 c 0.25,0.1679 0.4308,-0.2641 0.5996,0.0843 0.0844,0.6 -0.5168,0.3477 -0.5168,0.6 0.084,0.3485 0.5168,0.5282 0.7808,0.5282 0.2512,0 -0.1796,-0.5282 0.4321,-0.5282 0.6015,0.4317 0,0.5282 0,0.6114 0,0.3492 0.7683,0.2527 0.8636,0.0851 0.0844,-0.0851 0.0844,-0.1683 0.0844,-0.2648 -0.1797,-0.1684 -0.3465,-0.3356 -0.4324,-0.684 0,-0.8649 -0.2641,-2.0762 0.0859,-2.8574 0.1668,-0.252 0.4309,-0.168 0.5996,-0.3496 0.2622,-0.25 0.9586,-1.4637 0.8633,-1.5469 -0.1672,-0.2649 -0.4328,-0.4324 -0.6011,-0.6133 0,-0.168 0.2668,-0.168 0.4339,-0.2519 0.0829,0 -0.5156,-0.6125 -0.8648,-0.7801 0,0 0,0 0,-0.084 0.2652,-0.2641 0.5992,-0.0852 0.8648,-0.2641 -0.1671,-0.4324 -0.2656,-0.4324 -0.5156,-0.8648 0.0817,-0.1684 0.9465,0.084 1.1168,0 0.0969,-0.6848 -1.3816,-0.7805 -1.466,0.084 -0.0844,0.0965 -0.0844,0.0965 -0.1688,0 -0.7792,-0.5168 -1.2957,-0.3364 -1.3925,-0.3364 0.8648,0.5168 0.6965,0.5996 1.1304,1.2961 -0.1687,0.2532 -0.6964,-0.3476 -1.0336,-0.2629 0.1684,0.084 0.2512,0.2629 0.4321,0.5997 0.1676,0.5285 0.5156,0.6125 0.5156,0.6125 -0.1797,0.1691 -1.1273,-0.5165 -1.1273,-0.5165 0.2621,0.8641 0.6961,1.0333 0.7793,1.4649 0,0.084 0,0.084 -0.0832,0.084 -0.6133,-0.6848 -1.0446,-0.7805 -1.477,-0.7805 0.0969,0.4316 1.477,0.6965 1.5602,1.4766 -0.0832,0.084 -0.2625,-0.2637 -0.5997,-0.3489 -0.264,-0.0828 -0.6136,-0.0828 -0.6968,-0.0828 0.3488,0.4317 0.5172,0.5157 0.8652,0.8653 l 0,0 c -0.348,0 -0.782,-0.1817 -1.1289,-0.1817 -0.0844,0 0,0.0957 0,0.0957 0.5277,0.4336 1.1289,0.336 1.1289,0.8653 0,0.1679 -0.0859,0.3371 -0.2652,0.4328 -0.2512,0 -0.8637,0 -0.7668,0.3359 0.5156,-0.1672 0.9461,0.0965 0.7668,0.6125 -0.1672,0.3484 -0.5168,0.252 -0.8637,0.168 -0.3375,0.1804 -0.0844,0.6965 0.0969,0.6965 l 0,0 z m -0.9617,0.348 c 0.0968,0 0.0968,-0.2637 0.5273,-0.348 0,-0.0844 -0.0949,-0.2641 -0.0949,-0.3485 -0.2532,-0.0844 -0.5168,0.5996 -0.4324,0.6965 l 0,0 z m 0.3496,1.116 c 0.2625,0.0844 0.6949,-0.0832 0.7789,-0.1683 -0.084,-0.0832 -0.1668,-0.3481 -0.2637,-0.3481 -0.2527,0.5164 -0.6856,0.4332 -0.5152,0.5164 l 0,0 z m 2.2437,0.3489 0,0 c -0.1683,0 -0.3359,-0.168 -0.5168,0 -0.0828,0.1675 -0.1687,0.264 -0.348,0.3476 0.348,0.0844 0.6965,0 0.8648,-0.3476 l 0,0 z M 11.3926,30.8379 c 0,-0.084 0,-0.1668 0,-0.3359 -0.2516,0.0839 -0.3465,0.0839 -0.684,-0.0958 0.0828,0.3477 0.5996,0.5286 0.684,0.4317 l 0,0 z m 0.3496,1.6445 c 0,-0.0828 -0.086,-0.1672 -0.1684,-0.3476 0,-0.084 -0.2656,0.0964 -0.6136,0 0.1808,0.3476 0.5168,0.3476 0.782,0.3476 l 0,0 z m 0.0844,-3.0254 c 0.1777,0 0.3468,-0.4324 0.2625,-0.4324 -0.0848,-0.1672 -0.6965,-0.1672 -0.8633,-0.0832 0.2512,0.0832 0.4304,0.2637 0.6008,0.5156 l 0,0 z m 5.4492,9.4246 c 0,-0.3472 0,-0.9468 -0.3465,-1.4636 -0.3496,-0.5285 -1.2148,-0.6121 -1.5633,-0.6961 0.9637,0.6961 1.2137,1.3804 1.9098,2.1597 l 0,0 z m 0.4328,0.6965 c 0.1684,0.086 0.2516,0.336 0.5164,0.336 0,-0.336 0.2645,-0.5145 0.1676,-0.6836 -0.2516,-0.5164 -0.6016,-1.5594 -0.684,-2.1602 -0.0848,-0.4324 -1.0445,-1.4773 -2.077,-1.2969 2.5094,1.5489 1.4629,2.8457 2.077,3.8047 l 0,0 z m 0.0824,1.634 c 0.2656,-0.1672 0.35,-0.4316 0.434,-0.6008 0,-0.084 0,-0.2636 0,-0.3476 0,-0.084 -0.1684,-0.084 -0.2648,-0.084 -1.0309,-0.4324 -0.6844,-1.5606 -1.9801,-2.2449 l -0.086,0 c 0.8664,0.7793 0.77,2.4129 1.8969,3.2773 l 0,0 z m -0.0824,1.6449 c -0.0848,-0.2523 -0.0848,-0.348 -0.2637,-0.684 -0.6844,-0.1804 -0.5156,-0.9609 -1.3824,-1.1281 -0.0824,0 -0.0824,0 -0.1684,0 0.1684,1.0317 1.118,1.6442 1.8145,1.8121 l 0,0 z m -0.1781,-0.9488 c 0,-0.168 0.0933,-0.348 0.1781,-0.5156 -0.7793,-0.5164 -0.7793,-1.2969 -1.6461,-1.1289 0,0 -0.0824,-0.084 -0.0824,0 1.032,0.8652 0.9492,1.3808 1.5504,1.6445 l 0,0 z m 0,1.5613 c 0.1781,0 0.1781,-0.0961 0.2605,-0.1808 0.086,-0.0836 0,-0.1676 0,-0.2516 -0.2605,-0.1801 -0.6965,-0.0969 -1.2961,-0.2637 0,-0.0843 -0.084,-0.0843 -0.1652,-0.0843 0.25,0.432 1.0308,0.6843 1.2008,0.7804 l 0,0 z m -0.9508,0.2524 c 0.2648,0.1797 0.5148,0.2629 0.8652,0.348 0,-0.1683 0,-0.2648 0,-0.348 -0.2535,0 -0.6004,-0.0852 -0.95,-0.1688 -0.1652,0 0,0.1688 0.0848,0.1688 l 0,0 z m 1.1289,0.9476 c -0.0848,-0.084 -0.1781,-0.2515 -0.2637,-0.3355 -0.2535,0 -0.5156,0.084 -0.7808,0.2515 0.6964,0.5165 1.1269,0.1805 1.0445,0.084 l 0,0 z m 0.8644,0.0965 c -0.0835,-0.0965 -0.1804,0.168 -0.6128,0 -0.0832,0 -0.1692,0 -0.3364,0.168 -0.0933,0.168 -0.1789,0.0848 -0.348,0.348 0.5152,0 0.9492,0 1.2972,-0.516 l 0,0 z m -0.8644,-8.1281 c 0.0824,-0.2641 0.0824,-0.6965 0.1684,-0.9484 -0.1684,-0.1805 -0.2532,-0.1805 -0.4321,-0.5293 0,0 -0.2535,0.696 -0.0844,1.0449 0.0844,0.0847 0.2633,0.2519 0.3481,0.4328 l 0,0 z m 0.348,7.8641 c 0.2516,0.0835 0.4329,0.0835 0.5996,-0.2645 0.3481,0 0.7825,-0.0844 1.0336,-0.2527 0.1813,0 0.2637,-0.1797 0.2637,-0.3481 -0.0824,-0.1672 -0.0824,-0.4316 -0.1683,-0.5156 -0.2637,0.084 -1.043,0.8637 -1.129,0.8637 0,0 -0.0832,-0.3481 -0.5152,-0.3481 -0.264,0.0852 -0.35,0.6008 -0.0844,0.8653 l 0,0 z m 0.1684,-1.4649 c 0,0.084 -0.084,0.3363 0.1676,0.4324 0.0969,0 0.1804,0.0836 0.2636,0.1672 0.086,0 0.1692,-0.1672 0.2653,-0.2633 -0.0961,-0.2523 -0.3485,-0.4332 -0.2653,-0.6843 0,0 0.086,-0.0844 0.1692,-0.0844 0.1789,0.0844 0.348,0.1687 0.432,0.4324 l 0.0949,0 c 0,0 0.0864,0 0.0864,-0.0969 0,-0.0832 -0.0864,-0.2511 -0.0864,-0.3355 -0.0949,-0.1797 -0.348,-0.2641 -0.4308,-0.3485 -0.0961,-0.0832 -0.2653,-0.0832 -0.2653,-0.1796 0.086,-0.1684 0.1692,-0.252 0.2653,-0.3364 0.0828,-0.0957 0.1676,0 0.2519,0 0,-0.0957 -0.0843,-0.18 -0.0843,-0.3476 -0.0848,0 -0.2637,0.084 -0.3469,0.084 -0.086,0.0836 -0.1692,0.1679 -0.1692,0.2636 0,0.0844 0,0.2524 -0.0835,0.3364 -0.0969,0 -0.1813,0 -0.2645,0 -0.084,-0.084 -0.084,-0.084 -0.084,-0.1684 0,-0.0836 0,-0.168 0.084,-0.168 0.1676,0 0.1676,-0.18 0.2645,-0.2636 0.0835,-0.168 0.3359,-0.168 0.1667,-0.3477 -0.0832,0 -0.0832,-0.084 -0.1667,-0.1699 -0.0969,0 -0.0969,0.0859 -0.0969,0.1699 -0.1676,0.2637 -0.336,0.5156 -0.5156,0.8637 0.0832,0.348 0.264,0.6965 0.348,1.0445 l 0,0 z m -0.2648,-5.7148 c 0.0964,0.4316 0.2648,1.3918 0.5293,1.8242 0,0 0,-0.0957 0.0835,-0.0957 0.2524,0 0.2524,0.0957 0.5161,0.2637 0,-1.6434 -0.9481,-1.3797 -0.5161,-4.4051 -0.5164,0.5156 -0.6128,1.7285 -0.6128,2.4129 l 0,0 z m 0.4324,8.3082 c 0.6965,-0.1793 1.0461,-0.7809 1.0461,-1.1285 -0.1813,0 -0.3496,0 -0.5172,0 -0.1793,0.3476 -0.432,0.6968 -0.5289,1.1285 l 0,0 z m 0.5289,-4.5016 c 0,0.0832 0.0828,0 0.0828,0 -0.0828,-0.3484 -0.1789,-0.6855 -0.1789,-1.0332 l 0.0961,0 c 0.1676,0.252 0.3359,1.1164 0.4308,0.9492 0.3375,-0.6972 -0.4308,-1.5625 -0.6101,-1.4668 -0.1692,0 -0.3496,1.0332 0.1793,1.5508 l 0,0 z m 0.3359,-1.6465 c 0.0949,0 0.2641,0.2649 0.2641,0.4317 0.6012,-1.295 -0.6,-2.9286 0.432,-3.9727 -0.6012,-0.168 -0.7801,0.6113 -0.7801,0.4324 -0.0843,-0.3484 0.084,-0.7808 0.2653,-1.1172 -0.6133,0.084 -0.7825,0.9485 -0.6133,1.9809 0.0961,0.7813 0.5269,1.2969 0.432,2.2449 l 0,0 z m 0.4324,3.3746 0.0954,0 c 0.0859,-0.0836 -0.2637,-0.5164 0,-0.8644 0.0859,-0.168 0.1683,-0.2524 0,-0.3481 0,0 -0.0954,-0.0843 -0.0954,0 l -0.2511,0.2637 c -0.1813,0.1684 -0.3496,0 -0.5172,0 0,0.0844 0,0.0844 0,0.1684 0.4308,0.0964 0.6,0.4324 0.7683,0.7804 l 0,0 z m -0.4324,3.0258 c 0.5278,-0.348 0.7809,-0.6008 1.043,-0.9488 -0.0813,-0.2645 -0.1777,-0.432 -0.2621,-0.6965 0,-0.0844 -0.0848,0.0965 -0.3485,0.1805 -0.2511,0.516 -0.3375,0.864 -0.4324,1.4648 l 0,0 z m 0.0949,-4.1426 c 0.0864,0.0844 0.1692,-0.2636 0.3375,-0.2636 0.1813,-0.084 0.1813,0 0.3485,0.1679 0.0844,0 0,0.0957 0,0.0957 -0.1672,0.2524 -0.2531,0.6848 -0.0848,1.0332 0.0848,0 0.1692,0 0.1692,0 0.1777,-0.1687 0,-0.5172 0.1777,-0.6004 0.0859,-0.0964 0.1687,-0.1804 0.2547,-0.1804 0.2637,0.084 0.0949,0.348 0.1793,0.6121 0.0844,0.0844 0.2515,0.2523 0.5172,0.2523 0,-0.0836 0,-0.1679 0.0839,-0.2523 0,-0.0957 0.2625,-0.1797 0.0829,-0.2641 -0.1668,-0.264 -0.2512,-0.6004 -0.336,-0.948 -0.1804,-0.2637 -0.8633,-0.5164 -1.3926,-0.8653 -0.0843,0.084 0,0.2532 -0.0843,0.5176 0.1797,0 0.348,0 0.5172,0.084 0.0964,0 0.3464,-0.084 0.4324,0.0832 0,0.1805 -0.086,0.3481 -0.2547,0.2645 -0.0813,0 -0.0813,0 -0.1777,-0.084 0,-0.2637 -0.684,-0.084 -0.7704,0 0,0.084 0,0.2519 0,0.3476 l 0,0 z m 0.4329,-1.5605 c 0.1683,0.084 0.3375,0.168 0.4339,0.2637 0.336,-0.3477 0.336,-1.4766 0.336,-1.8243 -0.086,-0.7695 -0.2547,-1.1171 0,-1.9812 -0.4324,0.3476 -0.5168,0.5152 -0.684,0.948 -0.0859,0.7813 0.2516,1.5606 -0.0859,2.3282 0,0.0976 -0.1797,0.2656 0,0.2656 l 0,0 z m 0.8648,3.5422 c 0.252,0.0832 0.6855,-0.2524 0.7684,-0.5168 0,0 0.0968,0 0.1796,0.0836 0.1688,0 0.3497,0 0.5168,-0.1676 0.0829,-0.084 0.0829,-0.1809 0,-0.3477 -0.0828,-0.0843 -0.4328,-0.4328 -0.5996,-0.0843 -0.0968,0.0843 0,0.2511 -0.1797,0.348 -0.2531,0.084 -1.0351,-0.2637 -1.382,0 0.0848,0.2516 0.3469,0.6848 0.6965,0.6848 l 0,0 z m 0.8652,1.7293 c 0.1668,0 0.336,0 0.4325,0 0,-0.0844 0,-0.1692 -0.0965,-0.1692 -0.4328,-0.348 -0.8653,-0.78 -1.1168,-1.2121 l -0.434,0 c 0.0859,0.5156 0.3496,1.2969 1.2148,1.3813 l 0,0 z M 21.2516,31.8828 c 0.0839,0 -0.0844,0 0,-0.3476 -0.0844,-0.0848 -0.0844,0 -0.1692,0 -0.2636,0.0839 -0.4324,0.0839 -0.6133,0 0.086,0.2636 0.5168,0.4328 0.7825,0.3476 l 0,0 z m -0.3496,8.8977 c 0.2652,-0.4328 0.4335,-1.0332 0.4335,-1.55 0.1797,-0.5164 0,-1.1282 -0.0839,-1.5594 -0.6016,0.5144 -0.3496,1.3797 -0.5172,2.0762 -0.0844,0.2644 -0.1793,0.5164 -0.2653,0.78 -0.0828,0 0.3497,0.1692 0.4329,0.2532 l 0,0 z m 0.5164,-10.3743 c 0,-0.1679 0,-0.1679 0.0968,-0.3371 l -0.0968,0 c -0.4325,0 -0.5164,-0.0957 -0.7684,-0.1796 0,0.1796 0.5172,0.6125 0.7684,0.5167 l 0,0 z m 0.3484,2.7727 C 21.682,33.0957 21.682,32.916 21.598,32.8312 c 0,-0.0839 -0.0828,0 -0.0828,0 C 21.3355,32.916 21.1672,33 20.9859,33 c 0.1813,0.2637 0.6121,0.4316 0.7809,0.1789 l 0,0 z m 0.5168,11.7551 c 0.3496,0.168 0.7789,-0.0844 1.1269,0 0.0844,0.0848 0.0844,0 0.0844,0 -0.1668,-0.2645 -0.4324,-0.168 -0.8617,-0.2645 -0.6855,-0.084 -0.8664,-0.2515 -1.2977,-0.7679 -0.1683,0 -0.1683,0.0832 -0.2531,0.0832 0.2531,0.6847 0.5156,0.7812 1.2012,0.9492 l 0,0 z m -1.032,-3.8891 c 0.0839,0.084 0.1668,0.3477 0.1668,0.2637 0.3484,-0.3496 0.6136,-1.0449 0.6136,-1.7305 0.1657,-0.7793 0.5153,-1.0437 0.4309,-1.0437 -0.2652,0.0847 -0.5152,0.2644 -0.6961,0.4324 -0.1688,0.3477 -0.1688,0.9473 -0.6844,1.9922 0.0848,0 0.0848,0 0.1692,0.0859 l 0,0 z m 0.1668,2.7602 c 0.8652,0.8644 1.2961,0.6969 2.0765,0.8644 0,0 0,-0.084 0.0848,-0.084 -0.0848,-0.2515 -0.2516,-0.6007 -0.5172,-0.6007 -0.4293,-0.0832 -0.7789,0 -1.2113,-0.3481 -0.0844,0 -0.0844,0.0852 -0.1692,0 -0.084,-0.0836 -0.3465,0.1684 -0.2636,0.1684 l 0,0 z m 0.2636,-1.8125 c 0.0848,0.084 0.1692,0 0.2657,-0.0844 0.8632,-0.7793 0.4308,-2.2441 1.2961,-3.0266 0.0843,-0.1675 -0.5293,0 -0.6965,0.2649 -0.5153,0.7676 -0.2637,1.3808 -0.9493,2.498 -0.0828,0 0.084,0.3481 0.084,0.3481 l 0,0 z m 0.6965,0.348 c 0.2547,0 0.6016,-0.1676 0.7699,-0.516 0.2621,-0.9484 0.0954,-1.4769 0.4313,-2.8578 -0.5172,0.084 -0.6856,1.5605 -0.9465,2.1621 -0.1703,0.4313 -0.4355,0.7793 -0.782,1.0441 0.5273,0.0832 0.5273,0.1676 0.5273,0.1676 l 0,0 z m 1.2012,1.1289 c 0,-0.0961 -0.0848,-0.0961 -0.0848,-0.0961 -0.3465,-0.1683 -0.6008,0.0961 -0.9476,-0.0847 -0.0844,-0.0836 -0.0844,0.0847 -0.1688,0.1808 -0.0949,0 -0.3465,0.0836 -0.2637,0.0836 0.5184,0.252 0.9477,0.3485 1.4649,-0.0836 l 0,0"
         style="fill:#231f20;fill-opacity:1;fill-rule:evenodd;stroke:none"
         id="path222"
         inkscape:connector-curvature="0" />
      <path
         d="m 23.6762,45.102 c 0.2515,-0.4325 0.2515,-0.684 0,-1.0321 l 0,1.0321 z m 0,-1.4653 c 0.1683,-0.2633 0.3359,-0.5156 0.4308,-0.4316 0.6856,0.7797 1.8973,1.0324 1.7321,1.5609 -0.1813,0.516 -0.5309,0.516 -1.0465,0.516 0.0844,0.3485 0.6105,0.3485 1.2117,0.3485 0,0.2523 0,0.4324 0,0.6004 0.9492,-0.168 1.382,-1.1289 1.8973,-1.2969 0.6121,-0.0844 1.2132,0.2648 1.6457,0.6008 0,0 0,0 0.0843,0 -0.0843,-1.0328 1.0446,-0.2528 1.3926,-0.336 0.0828,-0.9613 -1.6441,-1.2972 -1.7304,-1.7293 -0.179,-0.4324 0.0863,-0.5293 0.1691,-0.6961 -0.0828,-0.0843 -0.6961,-0.0843 -0.6012,-0.2644 0.2531,-0.5164 1.0336,-0.2528 1.1184,0 0.2637,0.5281 -0.252,0.6961 -0.1692,0.8644 0.0844,0 0.3485,-0.1683 0.5172,0 0,0.1797 -0.0843,0.2633 -0.0843,0.3485 0.348,-0.0852 0.6855,-0.3485 1.2972,-0.2524 0.1656,0.1672 0,0.3356 0.0844,0.5153 0.348,-0.0832 0.598,-0.4317 0.9465,-0.5153 0.2664,0 0.1808,0.3356 0.0859,0.768 0.3465,0.0965 0.6961,-0.9488 1.1289,-1.1164 0.1668,0 0.3481,0.2523 0.3481,0.432 0.0824,0 0.0824,-0.0836 0.1672,-0.0836 0.5148,-2.2574 1.2132,-0.1808 1.6453,-0.5293 l -0.084,-0.0832 c -0.1797,-0.2523 -0.1797,-0.5164 -0.1797,-0.7804 0.348,-1.2961 -1.0336,-1.6332 -0.9492,-1.7289 0.0824,-2.9297 -2.9418,-2.9297 -4.4906,-2.5938 0.348,-1.032 1.6441,-1.116 1.6441,-1.9805 0.0855,-0.2644 0.1687,-1.0449 0.5148,-1.2976 0.35,-0.2637 1.1184,0.1687 1.4664,0.4336 0.6961,0 0.7809,-0.5168 0.8653,-0.6133 0.6965,-0.084 1.1289,0.3484 1.7285,0.5281 0.2652,-0.1797 -0.3481,-0.7804 -0.0828,-0.6965 0.0828,0 0.1687,0.0844 0.2637,0 0.0843,-0.3484 -0.2637,-0.6961 -0.1809,-0.864 0.0859,-0.0848 0.2652,-0.0848 0.3469,-0.168 0,-0.1797 -0.261,-0.0957 -0.4297,-0.4316 0.1687,-0.1817 0.5152,-0.0965 0.6961,-0.0965 -0.1809,-0.3364 -0.7824,-0.7688 -0.866,-0.8645 0,-0.084 0.3386,-0.084 0.3386,-0.084 0,-0.2519 -0.434,-0.3476 -0.5172,-0.5168 0,-0.0835 0.1786,-0.1675 0.1786,-0.2644 -0.1786,-0.1668 -0.8625,-0.4317 -0.695,-0.5164 0.0825,-0.1684 0.3481,-0.2524 0.5164,-0.2524 -0.6007,-0.5269 -0.9492,-0.6121 -1.4664,-0.6121 -0.0824,-0.1679 -0.0824,-0.4324 -0.348,-0.5996 -0.0824,-0.0847 -0.4305,-0.3484 -0.6012,-0.2644 0.0848,0.4316 -0.0949,1.0449 -0.5277,0.9492 -0.084,0 -0.084,-0.0852 -0.084,-0.1692 0.2652,-0.5156 -0.0844,-1.1281 -0.8621,-1.0324 -0.3496,-0.3484 -1.382,-0.3484 -1.8984,0.1684 0,0.084 0,0.084 0,0.168 0.348,0 0.6855,0.0957 1.032,0.2644 0,0.0832 0,0.2637 -0.0844,0.3477 -0.5152,0 -0.9476,-0.1805 -1.3805,-0.4317 -0.0828,0 0,0 -0.0828,0.084 0,0.6008 0.4313,1.2969 0.8637,1.3801 0.2527,0.4324 0.3375,0.3496 0.3375,0.4324 -0.2531,0.2649 -0.6855,0.3484 -1.034,0.2649 -0.0844,0 -0.2637,-0.084 -0.2637,0.0835 0.4325,0.8657 1.0446,0.9485 1.6442,0.6965 0.1808,0.1692 0.4308,0.336 0.6121,0.252 0.3355,-0.0828 0.3355,-0.6004 0.6008,-0.7793 0.3496,-0.0852 0.7808,0.4316 0.7808,0.7793 0,0.6965 -1.2129,0.7804 -1.8129,0.6965 -0.5273,-0.0832 -1.1285,0 -1.5613,0.3484 -0.348,0.252 -0.6961,0.5156 -1.1285,0.8645 0,0.0836 0,0 -0.0848,-0.0957 0,-0.2532 -0.2511,-0.6008 0.0848,-0.9485 0.2637,-0.2519 0.6961,-0.4336 0.7805,-0.7812 0,-0.252 -0.0844,-0.4317 -0.2535,-0.5996 -0.179,-0.2637 -0.6118,-0.3489 -0.6118,-0.6973 0,-0.4317 0.0848,-0.5996 0.4328,-1.0332 -0.348,-0.084 -0.8632,0.0848 -1.2132,0.1687 -0.084,-0.0839 -0.334,-0.5164 -0.4325,-0.7683 -0.2519,-0.0965 -0.4296,0.6844 -0.5156,0.5156 -0.0844,0 -0.2527,-0.4316 -0.2527,-0.5156 -0.1797,-0.1805 -0.4313,0.5156 -0.4313,0.6844 -0.2652,-0.1688 -0.348,-0.5165 -0.348,-0.7809 -0.2637,0.0965 -0.3485,0.3484 -0.5184,0.5293 -0.1781,-0.3488 -0.5261,-0.4328 -0.959,-0.3488 -0.0836,0 0.1813,0.3488 0.0969,0.4316 0,0.084 0,0 -0.0969,0 -0.0836,-0.1785 -0.432,-0.1785 -0.7679,-0.1785 l 0,1.2957 c 0.3359,0 0.6843,-0.084 1.0324,-0.4317 0.2648,-0.1679 0.2648,-0.4328 0.084,-0.6855 0,-0.0828 -0.1672,-0.1785 0,-0.2637 0.6961,0.1809 0.4324,1.045 0.6961,1.2141 l 0,0 c 0,-0.3496 -0.0856,-0.7816 0.2535,-1.0332 0.1793,0.5152 0.3469,1.0332 0.7789,1.3809 l 0.0828,0 c 0,0.0835 -0.3344,-0.8657 0,-1.2141 0.1813,0.4336 0.4356,1.2141 0.8652,1.4668 l 0.0985,0 c -0.2672,-0.3367 -0.4328,-1.0332 -0.0985,-1.4668 0.2668,0.5168 0.0985,1.1301 0.6965,1.7305 0,-0.0848 0.086,0 0.086,-0.0848 -0.2536,-0.6125 -0.5157,-1.2973 0.4304,-1.477 l 0,0 c -0.684,0.7805 0,1.477 0.3485,1.6457 0.0843,0.084 0.0843,0.3489 0.0843,0.4317 -0.0843,0.1804 -0.2531,0.3488 -0.4328,0.4316 -0.2511,0.0852 -0.5996,0.2649 -0.684,0.6133 0,0.4316 0.1676,0.9481 0.2536,1.2969 0,0.1679 -0.5157,0.6836 -0.9512,1.1164 -0.1656,-0.5996 -0.8617,-0.5996 -1.1274,0 -0.6843,-0.4328 -0.6843,-0.5996 -1.1996,-1.1164 0,-0.0965 -0.1808,0 -0.1808,0.0832 0.1808,0.3484 0.264,0.7808 0.4324,1.0332 0,0.1805 -0.2516,-0.084 -0.5996,-0.2524 -0.2649,-0.1804 -0.6133,-0.2644 -0.6133,-0.3472 -0.2531,-0.6973 -0.0844,-1.1301 0.8649,-1.2981 0.6117,-0.084 1.3925,0.168 1.9082,-0.1797 0.8648,-0.6004 0.1683,-1.4636 -1.043,-1.6328 -0.6016,-0.0957 -1.7301,-0.1797 -1.8977,0.6008 -0.0855,0.0828 -0.0855,0.168 -0.1683,0.168 l 0,0.2636 c 0.0828,-0.0839 0.1683,-0.0839 0.2515,-0.1671 0.2637,-0.4329 0.4328,-0.4329 0.9493,-0.5293 0.348,0 0.696,0 1.0445,0.0964 0.5996,0.1684 0.5996,0.9477 0.0828,0.9477 -0.6012,0.0848 -1.1273,-0.0832 -1.6438,0 -0.3484,0.0848 -0.516,0.1688 -0.6843,0.3484 l 0,1.8977 c 1.1164,0.5164 1.8968,0.9488 2.9277,1.4645 0.1813,0.096 0.2652,0.096 0.4356,0 1.3914,-1.7293 1.991,-3.1102 4.2363,-3.4579 0.8664,-0.1679 1.9937,0.1797 2.3402,-0.7675 0.2531,-0.6961 -0.2621,-1.7293 -0.9582,-1.7293 -0.2551,0 -0.4344,0.2515 -0.5156,0.4324 -0.1688,0.168 -0.0856,0.4316 -0.3496,0.4316 -0.2516,0 -0.4321,-0.3484 -0.5168,-0.5273 -0.1688,-0.4336 0.3496,-0.2527 0.4308,-0.5176 0.2668,-0.3477 -0.3461,-0.6848 -0.5152,-0.3477 -0.3469,0.0958 -0.3469,-0.6855 -0.0844,-0.864 0.2535,0 0.3496,0.1785 0.5184,0.2625 0.5168,0.1687 0.7773,-0.5996 0.0812,-0.4317 -0.1656,-0.1679 -0.0812,-0.3484 0,-0.5156 0.1813,-0.2644 0.8653,-0.3484 0.9512,0.084 0.0949,0.1672 -0.0859,0.2637 -0.0859,0.4316 0.348,0.9485 1.6453,0.3477 2.0781,0.3477 0.0844,0 0.5172,0.084 0.7809,0.2527 -0.3485,0.0957 -1.0446,0.3481 -1.1289,0.6125 0.8652,-0.1797 1.1289,0 1.3816,0.0852 -0.3359,0.0828 -0.8668,0.1668 -1.2008,0.3477 0,0.0835 0,0.0835 0,0.0835 0.5996,-0.0835 1.1149,-0.0835 1.5488,0.3481 -0.5164,0 -1.3816,-0.0832 -1.4664,0.2527 0.1692,0.0957 0.602,-0.084 0.95,0 0.2637,0 0.8649,0.3477 0.695,0.5281 -0.4313,-0.1804 -0.5266,0.1684 -1.5602,0 0,0.2512 1.2973,0.2512 1.2973,0.4329 -0.2637,0 -1.0336,0.0832 -1.2973,0.1671 l 0,0.0848 c 0.6977,-0.0848 1.3816,0.2629 1.5602,0.7805 -0.2629,-0.1692 -1.4758,-0.4328 -1.645,-0.2649 0.8657,0.0957 1.645,1.0442 1.5496,1.0442 -0.5171,-0.2637 -0.9476,-0.3481 -1.5496,-0.3481 0,0 -0.0824,0 -0.1789,0.0844 0,0.084 0,0.1805 -0.0843,0.1805 -0.4329,0.4316 -1.2977,-0.8653 -2.2454,-0.1805 -0.4312,0.4324 -0.4312,1.0445 -0.6961,1.4774 -0.1691,0.4316 -0.516,0.7675 -0.8656,1.0324 -0.5148,0.3484 -0.9476,0.864 -1.2957,1.3804 -0.0844,0.4321 -0.7683,1.1282 -1.3816,1.1282 -0.3485,-0.084 -0.6004,-0.1797 -0.9485,-0.2637 -1.2113,-0.2527 -2.0765,-0.6848 -3.1929,-0.948 l 0,3.4578 c 0.0828,0 0.0828,0 0.0828,0.0836 0,0.0843 -0.0828,0.0843 -0.0828,0.18 l 0,1.8965 z m 0,-7.6113 0.0828,0.0957 0,0 c 0,0 -0.0828,0 -0.0828,-0.0957 l 0,0 z m 0.4308,-5.6192 c 0.1703,0.0958 0.2535,-0.0847 0.3371,-0.0847 0.2645,-0.1684 -0.5164,-0.6836 -0.7679,-0.6008 0.2515,0.2527 0.3359,0.4324 0.4308,0.6855 l 0,0 z m 0.5184,12.8825 c 0.5152,0.5164 1.4637,0.7812 1.4637,1.2968 0.0839,0.6965 -0.7809,0.7813 -0.686,0.7813 0.2547,0.168 0.8664,-0.0848 1.0356,-0.4328 0.0824,-0.0844 0.0824,0.6008 -0.0848,0.9488 l 0.0848,0 c 0.7785,-0.516 0.7785,-1.2133 0.5148,-1.7297 0,-0.0832 0.086,-0.1683 0.1813,-0.0832 0.3343,0.6961 1.2007,0.5996 1.8129,0.8641 0.0828,0 0.0828,-0.0844 0.0828,-0.0844 -0.1688,-0.0836 -0.2637,-0.2641 -0.3485,-0.3476 0,-0.084 0.0848,-0.084 0.1797,-0.084 1.1184,0 1.7301,0.516 1.8145,0.4316 0,-0.0836 -0.1813,-0.5156 -1.8145,-0.948 -0.348,-0.5282 0.2531,-0.9614 0.1688,-1.0446 -0.4328,-0.0836 -0.695,0.1801 -0.695,0.6125 0,0.0836 0,0.0836 -0.0839,0.0836 -0.5157,-0.6129 0.3461,-1.4765 0.9476,-1.6449 0,0 0,0 0,-0.0836 0,0 -0.1687,0 -0.2515,0 -1.8129,0.3484 -1.3801,1.8121 -3.0262,1.6449 -0.4328,-0.0961 -1.1289,-0.6125 -1.2961,-1.2133 -0.0844,-0.516 0.2516,-1.1273 0.6828,-1.2972 1.2129,-0.3477 2.1609,0.2531 3.2055,0.6855 0.5168,-0.1679 1.0336,-0.0843 1.2972,0.1801 0.0844,0 -0.348,0.0836 -0.4308,0.252 l 0.0828,0 c 0.6012,0.0964 0.8652,0.264 0.7809,0.9605 0.4324,0 0.8632,-0.5281 0.9476,-0.6965 0.2652,0 -0.1672,0.7805 -0.2621,0.9481 0.5273,-0.1676 0.9586,-0.2516 1.2129,-0.8637 0.2605,0 -0.1688,1.1281 -0.0856,1.0445 0.8633,-0.4324 0.7817,-1.2133 0.8633,-1.1289 0.2653,0.3485 0.0844,0.6965 0.1684,0.9481 0.5277,-0.2516 0.9621,-0.5996 0.6984,-1.1157 0,-0.0964 0.0824,-0.0964 0.0824,-0.0964 0.1813,0 0.4329,0.5281 0.4329,0.6125 0.2632,-0.3485 0.4324,-0.7809 0.2632,-1.1289 0,-0.0836 -0.0824,-0.0836 -0.0824,-0.1676 0.0824,-0.084 0.1672,0 0.2516,0 0.4328,0.2519 0.348,0.7804 0.6133,0.948 0.25,-0.948 0.0832,-1.4644 -0.8649,-1.7293 l -0.0965,-0.084 c 0.0965,-0.4316 0,-0.8632 -0.1691,-1.2128 -0.2637,-0.6954 -0.7785,-0.9473 -1.3789,-1.2122 -0.8649,-0.3484 -2.5945,-0.2527 -3.291,0.2649 -0.0844,0.0832 -0.1672,0.1672 -0.2535,0.2519 1.1183,-0.3371 4.0601,-0.5168 4.5753,1.1282 0.4329,1.1289 -0.5996,1.8972 -1.4664,1.9929 -1.8109,0.168 -3.3722,-0.6113 -5.5336,-1.2968 -1.03,-0.2637 -2.857,-0.1797 -2.857,1.2968 -0.0844,0.6004 0.0949,1.1168 0.6133,1.5485 l 0,0 z m 5.9664,-13.2196 c 0,-0.1796 0.0844,-0.3484 0.1684,-0.5269 0.0843,-0.0852 -0.5164,-0.0852 -0.6961,-0.1692 0,0.1692 0.264,0.6961 0.5277,0.6961 l 0,0 z m 0.5152,1.55 c -0.0828,-0.0839 -0.1777,-0.4328 -0.1777,-0.4328 -0.3375,0.1809 -0.5172,0.1809 -0.8652,0.0852 0.0953,0.1789 0.6961,0.6113 1.0429,0.3476 l 0,0 z m 0.2535,-2.9421 c 0.0961,-0.084 0.1805,-0.168 0.2649,-0.252 -0.1688,-0.1801 -0.8652,-0.1801 -0.9492,0.084 0.2531,0 0.5152,0 0.6843,0.168 l 0,0 z m 2.1606,1.0437 c -0.0824,0.084 0.4324,0 0.6137,-0.1785 0,-0.0852 0.0824,-0.4336 -0.2657,-0.6008 0,0.4316 0,0.5156 -0.348,0.7793 l 0,0 z m -9.6766,11.1555 0.0832,0.0828 c 0.4328,-0.9473 1.4754,-1.0449 2.4262,-0.8633 1.7285,0.252 4.0582,1.2129 5.534,1.2129 0.5148,0 1.7281,-0.2637 1.7281,-1.0449 0,-0.5164 -0.1773,-0.7813 -0.5277,-1.1172 -0.5164,-0.3477 -1.8125,-0.4324 -2.3281,-0.4324 -0.4321,0 -1.7297,0 -1.9934,0.5164 -0.3359,0.1691 -0.6012,0.2519 -1.0309,0.2519 -1.2148,0 -2.5953,-0.6836 -3.6289,-0.6836 -0.1793,0 -0.348,1.5489 -0.2625,2.0774 l 0,0 z m 2.6766,2.1609 c 0.5184,-0.348 0.8652,-0.9605 1.4769,-1.2969 0,-0.0957 -1.2972,-0.5281 -1.825,-0.5281 -0.948,0 -1.1164,0.4324 -1.1164,0.8645 -0.0832,0.5281 0.8649,1.2968 1.4645,0.9605 l 0,0"
         style="fill:#231f20;fill-opacity:1;fill-rule:evenodd;stroke:none"
         id="path224"
         inkscape:connector-curvature="0" />
      <path
         d="M 8.11484,40.1797 10.5293,41.1289 9.57969,38.7141 12.0043,37.7539 9.57969,36.8059 10.5293,34.3926 8.11484,35.3406 7.15469,33 l -0.94922,2.3406 -2.50899,-0.948 1.04414,2.4133 -2.16093,0.8652 0,0.1785 2.16093,0.8645 -0.94921,2.4148 2.41406,-0.9492 0.94922,2.425 0.96015,-2.425 0,0 z M 8.01992,39.9141 10.0953,40.7805 9.23281,38.6191 11.3926,37.7539 9.23281,36.9855 10.0953,34.8242 8.01992,35.6895 7.15469,33.5273 6.28984,35.6895 4.13047,34.8242 l 0.86172,2.1613 -1.98008,0.7684 1.98008,0.8652 -0.86172,2.1614 2.15937,-0.8664 0.86485,2.1625 0.86523,-2.1625 0,0"
         style="fill:#fff200;fill-opacity:1;fill-rule:evenodd;stroke:none"
         id="path226"
         inkscape:connector-curvature="0" />
    </g>
  </g>
</svg>
